<svg width="208" height="218" viewBox="0 0 208 218" fill="none" xmlns="http://www.w3.org/2000/svg">
<g clip-path="url(#clip0_504_18544)">
<path d="M107.63 207.229C81.597 207.229 57.1229 197.089 38.7151 178.682C20.3074 160.274 10.168 135.8 10.168 109.767C10.168 83.7342 20.3074 59.2601 38.7151 40.8523C57.1229 22.4446 81.597 12.3052 107.63 12.3052C133.662 12.3052 158.137 22.4446 176.544 40.8523C194.952 59.2601 205.091 83.7342 205.091 109.767C205.091 135.8 194.952 160.274 176.544 178.682C158.137 197.089 133.662 207.229 107.63 207.229Z" fill="#94D4D4"/>
<path d="M107.631 195.449C154.952 195.449 193.314 157.088 193.314 109.767C193.314 62.4457 154.952 24.0845 107.631 24.0845C60.3105 24.0845 21.9492 62.4457 21.9492 109.767C21.9492 157.088 60.3105 195.449 107.631 195.449Z" fill="#AB1A2D"/>
<path d="M155.588 124.156L155.543 124.242L159.702 128.886L155.588 124.156ZM150.22 172.28L149.843 172.592L149.44 172.873C137.316 181.291 123.272 185.745 108.815 185.745C68.1889 185.745 35.1338 151.235 35.1338 108.816C35.1338 87.5354 43.1665 67.8909 57.755 53.4927C71.5144 39.9191 90.2075 32.131 109.046 32.131C120.771 32.131 132.437 35.1665 142.771 40.8977C149.44 44.5901 154.945 49.9135 159.113 54.9108L166.969 45.9312C151.185 31.2883 130.48 23.0518 108.815 23.0518C61.5244 23.0518 23.0508 61.5254 23.0508 108.816C23.0508 156.106 61.5244 194.851 108.815 194.851C130.348 194.851 150.981 186.674 166.72 172.144L159.09 163.341C156.599 166.336 153.631 169.457 150.22 172.28ZM158.003 144.489C158.003 144.489 157.989 144.512 157.967 144.557L160.839 147.76L158.003 144.489ZM166.711 136.941L159.738 128.927L201.034 176.543L166.711 136.941Z" fill="#96D8D8"/>
<path d="M204.347 180.362L201.035 176.543L159.739 128.927L159.703 128.886L155.544 124.242L136.212 102.658L99.4008 137.748L89.8957 128.279L72.897 146.736C72.82 146.664 72.752 146.587 72.684 146.514C63.718 136.787 58.1862 123.481 58.1862 108.815C58.1862 83.0228 77.6314 55.1824 109.046 55.1824C116.979 55.1824 124.568 57.1577 131.613 61.0676C139.415 65.3853 145.93 75.4839 147.765 78.9815L155.535 94.0049L197.841 45.6546L191.344 38.075C170.603 13.8772 140.525 0 108.815 0C48.817 0 0 48.817 0 108.815C0 168.814 48.817 217.903 108.815 217.903C138.418 217.903 166.666 205.752 187.135 184.39H207.836L204.347 180.362ZM182.057 172.864C179.746 175.524 177.295 178.061 174.713 180.457C157.379 196.55 134.223 206.377 108.815 206.377C55.0374 206.377 11.5258 162.598 11.5258 108.815C11.5258 55.0329 55.0374 11.5258 108.815 11.5258C138.273 11.5258 164.759 24.7687 182.596 45.5776L158.004 73.6853C158.004 73.6853 149.894 58.0095 137.195 50.9826C97.7381 29.0908 46.6604 58.5486 46.6604 108.815C46.6604 145.028 74.4963 174.219 108.815 174.219C121.519 174.219 133.14 170.164 142.867 163.409C146.229 160.623 149.11 157.428 151.43 154.465L143.597 145.721C141.612 148.444 138.989 151.579 135.881 154.221C127.735 159.766 118.388 162.693 108.815 162.693C106.958 162.693 105.118 162.584 103.311 162.376C103.034 162.344 102.758 162.312 102.482 162.272C98.4585 161.737 94.5848 160.695 90.9105 159.214C90.6659 159.118 90.4258 159.019 90.1857 158.914C89.9727 158.824 89.7552 158.733 89.5423 158.638C89.0349 158.416 88.5365 158.185 88.0382 157.945C87.4764 157.678 86.9191 157.397 86.3664 157.102C86.1081 156.966 85.8454 156.826 85.5917 156.681C85.0752 156.395 84.5632 156.106 84.0603 155.802C83.8066 155.648 83.5529 155.494 83.3037 155.34C83.0591 155.186 82.8144 155.032 82.5743 154.878C82.5652 154.873 82.5607 154.869 82.5562 154.864C82.3115 154.706 82.0669 154.542 81.8222 154.379L90.2581 145.223L99.2242 154.153L135.546 119.526L145.98 131.174L149.749 135.378L149.899 135.546L157.968 144.557C157.99 144.512 158.004 144.489 158.004 144.489L160.84 147.76L182.596 172.864H182.057Z" fill="#96D8D8"/>
<path d="M150.219 172.28L149.843 172.592L149.44 172.873C137.316 181.291 123.272 185.745 108.815 185.745C68.1889 185.745 35.1338 151.235 35.1338 108.816C35.1338 87.5354 43.1665 67.8909 57.755 53.4927C71.5143 39.9191 90.2075 32.131 109.046 32.131C120.771 32.131 132.437 35.1665 142.771 40.8977C149.44 44.5901 154.945 49.9135 159.113 54.9108L166.969 45.9312C151.185 31.2883 130.48 23.0518 108.815 23.0518C61.5244 23.0518 23.0508 61.5254 23.0508 108.816C23.0508 156.106 61.5244 194.851 108.815 194.851C130.348 194.851 150.981 186.674 166.72 172.144L159.09 163.341C156.599 166.336 153.631 169.457 150.219 172.28ZM158.003 144.489C158.003 144.489 157.989 144.512 157.967 144.557L160.839 147.76L158.003 144.489Z" fill="#04203E"/>
<path d="M159.09 163.341L166.72 172.144C150.981 186.674 130.348 194.851 108.815 194.851C61.5244 194.851 23.0508 156.255 23.0508 108.816C23.0508 61.3759 61.5244 23.0518 108.815 23.0518C130.48 23.0518 151.185 31.2883 166.969 45.9312L159.113 54.9108C154.945 49.9135 149.44 44.5901 142.771 40.8977C132.437 35.1665 120.771 32.131 109.046 32.131C90.2075 32.131 71.5143 39.9191 57.755 53.4927C43.1665 67.8909 35.1338 87.5354 35.1338 108.816C35.1338 151.235 68.1889 185.745 108.815 185.745C123.272 185.745 137.316 181.291 149.44 172.873L149.843 172.592L150.219 172.28C153.631 169.457 156.599 166.336 159.09 163.341Z" fill="#AB1A2D"/>
<path d="M160.841 147.76L157.969 144.557C157.991 144.512 158.005 144.489 158.005 144.489L160.841 147.76Z" fill="#96D8D8"/>
<path d="M157.969 144.557L149.9 135.546L149.751 135.378L145.981 131.174L135.547 119.526L99.2257 154.153L90.2597 145.223L81.8238 154.379C82.0684 154.543 82.3131 154.706 82.5577 154.864C82.5622 154.869 82.5668 154.873 82.5758 154.878C82.816 155.032 83.0606 155.186 83.3053 155.34C83.5544 155.494 83.8082 155.648 84.0619 155.802C84.5648 156.106 85.0767 156.396 85.5932 156.681C85.8469 156.826 86.1097 156.966 86.3679 157.102C86.9207 157.397 87.4779 157.678 88.0397 157.945C88.5381 158.185 89.0364 158.416 89.5439 158.638C89.7568 158.733 89.9743 158.824 90.1872 158.915C90.4273 159.019 90.6674 159.118 90.9121 159.214C94.5864 160.695 98.46 161.737 102.483 162.272C102.76 162.313 103.036 162.344 103.312 162.376C105.12 162.584 106.959 162.693 108.817 162.693C118.39 162.693 127.737 159.766 135.883 154.221C138.991 151.58 141.614 148.444 143.598 145.722L151.432 154.466C149.112 157.429 146.23 160.623 142.869 163.409C133.142 170.164 121.521 174.219 108.817 174.219C74.4978 174.219 46.662 145.028 46.662 108.815C46.662 58.5487 97.7397 29.0909 137.196 50.9827C149.896 58.0096 158.005 73.6854 158.005 73.6854L182.597 45.5777C164.76 24.7688 138.275 11.5259 108.817 11.5259C55.039 11.5259 11.5273 55.0375 11.5273 108.815C11.5273 162.593 55.039 206.377 108.817 206.377C134.224 206.377 157.38 196.55 174.714 180.457C177.297 178.061 179.748 175.524 182.058 172.864H182.597L160.842 147.76L157.969 144.557ZM108.817 194.851C61.5268 194.851 23.0531 156.255 23.0531 108.815C23.0531 61.3758 61.5268 23.0517 108.817 23.0517C130.482 23.0517 151.187 31.2882 166.971 45.9311L159.115 54.9107C154.947 49.9134 149.443 44.59 142.774 40.8976C132.439 35.1664 120.773 32.1309 109.048 32.1309C90.2099 32.1309 71.5167 39.919 57.7573 53.4926C43.1689 67.8908 35.1362 87.5353 35.1362 108.815C35.1362 151.235 68.1913 185.745 108.817 185.745C123.274 185.745 137.319 181.291 149.443 172.873L149.846 172.592L150.222 172.28C153.633 169.457 156.601 166.336 159.093 163.341L166.722 172.144C150.983 186.673 130.351 194.851 108.817 194.851Z" fill="#04203E"/>
<path d="M160.841 147.76L157.969 144.557C157.991 144.512 158.005 144.489 158.005 144.489L160.841 147.76Z" fill="#04203E"/>
</g>
<defs>
<clipPath id="clip0_504_18544">
<rect width="207.836" height="217.903" fill="white"/>
</clipPath>
</defs>
</svg>
