<svg width="306" height="276" viewBox="0 0 306 276" fill="none" xmlns="http://www.w3.org/2000/svg">
<g clip-path="url(#clip0_202_5306)">
<path d="M295.667 90.392L238.343 90.5051L238.629 90.392H238.622L258.351 82.5896H208.098L232.715 30.2144L191.628 78.0997L174.999 58.0117L176.303 82.5896L137.803 82.4765L152.722 90.392H14.7734L44.227 112.136L43.4621 116.965L26.813 211.459V211.466L26.7664 211.725H110.837L92.6578 248.429L146.743 179.385L158.27 211.545L273.596 211.725L253.382 152.958L295.667 90.392Z" fill="#274F8B"/>
<path d="M108.651 104.028H56.1026L59.1889 106.296L45.3867 187.007L50.0229 198.049H92.3608L101.134 186.156L114.345 108.218L108.644 104.034L108.651 104.028ZM86.4874 182.744H61.5037L71.0821 126.258L61.6634 119.333H97.1899L86.4874 182.744Z" fill="#FFCB07"/>
<path d="M61.6729 119.333L71.0917 126.258C70.952 125.998 61.5 182.744 61.5 182.744H86.497L97.1995 119.333H61.6729ZM84.5015 180.449H64.2139L73.5861 125.247L68.6572 121.622H94.4856L84.4948 180.449H84.5015Z" fill="white"/>
<path d="M283.446 216.494V211.751H281.75V210.78H286.293V211.751H284.597V216.494H283.446Z" fill="white"/>
<path d="M287.031 216.494V210.78H288.761L289.798 214.678L290.823 210.78H292.552V216.494H291.481V211.998L290.344 216.494H289.233L288.102 211.998V216.494H287.031Z" fill="white"/>
<path d="M117.023 198.761L120.555 191.624L135.056 106.156L132.156 104.028H150.694L143.79 144.716L147.328 137.579L153.408 101.733H125.158L132.562 107.167L117.023 198.761Z" fill="white"/>
<path d="M135.051 106.156L120.551 191.624L143.785 144.716L150.689 104.028H132.151L135.051 106.156Z" fill="#FFCB07"/>
<path d="M155.863 167.744L166.892 198.049H183.714L167.504 152.877L155.863 167.744Z" fill="#FFCB07"/>
<path d="M167.497 152.891L183.7 198.049H166.871L155.849 167.758L154.293 169.74L164.996 200.337H187.338L169.146 150.776L167.497 152.891Z" fill="white"/>
<path d="M219.426 88.5757H198.753L207.194 68.9067L190.432 87.997L182.662 76.7624L183.906 88.5691H159.688L173.29 96.5444L156.734 104.014H172.066L117.742 207.96L188.423 113.107L190.924 134.605L199.624 106.974H214.531L199.352 95.8859L219.426 88.5624V88.5757ZM203.974 103.189H195.553L191.842 120.251L190.179 104.872L141.981 169.154L179.836 100.662H172.652L183.607 95.8393L170.324 91.11H186.095L185.31 83.6601L190.013 92.8394L196.538 86.0481L194.09 91.11H203.243L193.285 95.8393L203.968 103.189H203.974Z" fill="#FFCB07"/>
<path d="M219.426 88.5757H198.753L207.194 68.9067L190.432 87.997L182.662 76.7624L183.906 88.5691H159.688L173.29 96.5444L156.734 104.014H172.066L117.742 207.96L188.423 113.107L190.924 134.605L199.624 106.974H214.531L199.352 95.8859L219.426 88.5624V88.5757ZM203.974 103.189H195.553L191.842 120.251L190.179 104.872L141.981 169.154L179.836 100.662H172.652L183.607 95.8393L170.324 91.11H186.095L185.31 83.6601L190.013 92.8394L196.538 86.0481L194.09 91.11H203.243L193.285 95.8393L203.968 103.189H203.974Z" fill="#FFCB07"/>
<path d="M227.762 171.236L230.875 180.449H214.591L223.957 125.247L219.028 121.621H239.528L233.994 130.787H253.896L274.077 101.733H199.485L207.068 107.3L192.262 187.061L197.703 200.331H257.827L247.604 171.23H227.762V171.236ZM199.166 198.049L194.603 187.007L209.569 106.296L206.483 104.028H268.656L251.98 128.426H238.704L238.817 128.24H238.75L244.238 119.34H212.044L221.463 126.264L211.884 182.75H234.207L231.034 173.611H245.548L254.348 198.056H199.166V198.049Z" fill="white"/>
<path d="M231.026 173.604L234.199 182.744H211.876L221.454 126.258L212.042 119.333H244.236L238.702 128.419H251.979L268.655 104.028H206.475L209.568 106.296L194.602 187.001L199.158 198.049H254.34L245.54 173.604H231.026Z" fill="#FFCB07"/>
<path d="M109.405 101.733H49.1144L56.6973 107.3L43.0547 187.067L48.4958 200.337H93.8468L103.232 187.233L116.842 107.201L109.398 101.733H109.405ZM101.17 186.003L92.3702 198.049H50.0323L45.3961 187.007L59.1983 106.296L56.1119 104.028H108.66L114.361 108.212L101.177 186.01L101.17 186.003Z" fill="white"/>
<path d="M146.736 179.385L92.6511 248.422L110.83 211.718H26.7597L44.2203 112.123L14.7667 90.3786H152.716L137.796 82.4697L176.296 82.5828L174.992 57.9982L191.628 78.0863L232.709 30.2009L208.091 82.5762H258.344L238.343 90.485L295.66 90.3719L253.375 152.938L273.59 211.705L158.263 211.525L146.736 179.365V179.385ZM305.338 85.5428H262.309L283.301 77.747H215.487L250.954 0.421387L191.608 70.4901L169.91 43.1717L171.121 77.6273H118.785L132.94 85.5361H0L39.0187 114.218L20.9993 216.561H102.735L75.4233 275.987L145.306 191.457L154.239 216.561H280.94L259.309 153.656L305.345 85.5361L305.338 85.5428Z" fill="white"/>
<path d="M190.182 104.873L191.852 120.251L195.557 103.19H203.978L193.289 95.8398L203.246 91.1105H194.1L196.548 86.0486L190.023 92.8399L185.32 83.6606L186.105 91.1105H170.334L183.617 95.8398L172.662 100.662H179.846L141.984 169.155L190.182 104.873Z" fill="white"/>
</g>
<defs>
<clipPath id="clip0_202_5306">
<rect width="305.338" height="275.579" fill="white" transform="translate(0 0.421387)"/>
</clipPath>
</defs>
</svg>
