<svg width="160" height="209" viewBox="0 0 160 209" fill="none" xmlns="http://www.w3.org/2000/svg">
<path d="M17.5527 135.871L23.1652 135.221L23.303 135.043H24.6225L25.1148 134.965C38.7422 132.976 51.129 126.733 60.9557 116.906C65.8789 111.983 69.9357 106.371 73.0078 100.227L78.6005 101.546V196.899L17.5724 135.871H17.5527Z" fill="white"/>
<path d="M80.5645 130.059L82.9079 129.567C83.0064 129.567 83.0851 129.528 83.1836 129.508L85.2317 134.943C85.2317 134.943 85.212 134.943 85.1923 134.963L80.5841 138.094V130.059H80.5645Z" fill="white"/>
<path d="M80.5645 106.068L82.8488 105.536C83.0457 105.497 83.2427 105.438 83.4396 105.398H83.5578C83.5578 105.379 85.724 110.794 85.724 110.794L85.6058 110.873C85.4286 110.972 85.2514 111.09 85.0741 111.188L80.5841 113.945V106.068H80.5645Z" fill="white"/>
<path d="M80.5645 118.024L82.9079 117.532C83.0654 117.493 83.2033 117.473 83.3608 117.434L85.468 122.849C85.3498 122.928 85.2317 123.007 85.0938 123.085L80.5645 125.961V118.024Z" fill="white"/>
<path d="M80.5645 142.879L81.8642 141.993C87.0828 138.448 93.0103 136.125 99.2923 135.14C96.9883 134.766 94.6251 134.589 92.262 134.589C89.8989 134.589 86.8858 134.825 84.2273 135.317L82.1005 129.921C87.9886 126.14 94.6251 123.699 101.616 122.734C99.2726 122.399 96.8898 122.222 94.4873 122.222C92.0848 122.222 87.8311 122.556 84.5424 123.226L82.4156 117.81C88.9339 113.813 96.2793 111.272 103.94 110.327C101.557 110.012 99.1545 109.854 96.7126 109.854C92.7543 109.854 88.7567 110.288 84.8575 111.134L82.7307 105.699C89.8989 101.485 97.9138 98.8462 106.244 97.9206C103.841 97.6252 101.399 97.4873 98.9576 97.4873C94.0147 97.4873 89.0718 98.0978 84.247 99.2991L80.5841 100.205V70.9414H151.084L151.281 73.6787C151.281 73.8363 151.281 73.9741 151.281 74.0529V126.18L80.5841 196.877V142.84L80.5645 142.879Z" fill="white"/>
<path d="M80.7356 133.856C80.7159 133.817 80.6962 133.758 80.6765 133.718L79.101 130.39L82.7245 129.602C82.8427 129.583 82.9608 129.563 83.079 129.543L86.4662 129.031V134.23L85.0286 135.057L82.1928 136.948L80.7356 133.856ZM80.6962 121.863C80.6765 121.824 80.6568 121.784 80.6371 121.725L79.101 118.437L82.6261 117.59C82.7245 117.57 82.823 117.55 82.9215 117.531L86.4662 116.802V122.257L85.0089 123.143L82.1141 125.073L80.6962 121.863ZM80.7159 109.969L80.5977 109.693L79.101 106.404L82.8624 105.538L86.4859 104.691V110.323L82.1141 112.982L80.7356 109.949L80.7159 109.969ZM35.1466 101.658L36.407 97.7788C36.4464 97.6213 36.5055 97.4834 36.5448 97.3259L42.2755 98.7241C42.1967 99.0195 42.1179 99.3149 42.0194 99.6102L41.3499 101.639H35.127L35.1466 101.658ZM36.6827 96.4594C36.6827 96.3609 36.6827 96.2428 36.6827 96.1246L42.5905 96.2231C42.5905 96.4397 42.5905 96.676 42.5512 96.932L36.663 96.4594H36.6827ZM36.5055 94.5886C36.4661 94.4704 36.4464 94.372 36.407 94.2538L41.9998 92.3633C42.0785 92.6193 42.1573 92.8753 42.2164 93.1313L36.4858 94.5886H36.5055Z" fill="white"/>
<path d="M51.1999 85.3172L51.6725 81.9497C52.0073 79.6063 51.7119 77.2037 50.8258 74.9981L49.2109 70.9414H77.7655L77.6474 74.0135C77.5292 77.0068 77.2141 80.0001 76.6824 82.9146L76.2295 85.3369H51.1802L51.1999 85.3172Z" fill="white"/>
<path d="M30.3287 85.3173L30.8013 81.9499C31.1361 79.6064 30.8407 77.1842 29.9742 74.9786L28.3594 70.9219H45.5512L46.4177 71.7687C49.4307 74.7226 50.5926 79.0747 49.4504 83.1511L48.8399 85.2976H30.3484L30.3287 85.3173Z" fill="white"/>
<path d="M7.875 85.3172V74.0726C7.875 73.9544 7.875 73.8166 7.875 73.6984L8.07193 70.9414H24.6336L25.5001 71.7882C28.5131 74.7421 29.675 79.0942 28.5328 83.1707L27.9223 85.3172H7.875Z" fill="white"/>
<path d="M7.875 101.645V87.2695H38.6943L39.5805 88.2345C39.6789 88.3526 39.7971 88.4708 39.8955 88.5889C40.0137 88.7268 40.1319 88.8646 40.2106 88.9828C40.2894 89.0813 40.3682 89.1797 40.4469 89.2979C40.506 89.3767 40.5454 89.4357 40.6045 89.5145L40.6439 89.5539C40.6833 89.6327 40.7423 89.6918 40.7817 89.7508L40.8802 89.9084C40.9393 90.0068 40.9983 90.0856 41.0377 90.1841C41.1953 90.4598 41.3331 90.7158 41.471 90.9915C41.5104 91.0899 41.5694 91.1884 41.6088 91.2869C41.6876 91.4641 41.7664 91.6413 41.8451 91.8383C41.9239 92.0155 41.983 92.1927 42.0421 92.37C42.1208 92.5866 42.1996 92.8426 42.2587 93.0789C42.3178 93.2955 42.3768 93.5122 42.4162 93.7485C42.4162 93.7879 42.4556 93.9848 42.4556 93.9848L42.495 94.2211C42.5147 94.3589 42.5344 94.4771 42.5541 94.5953C42.5738 94.7725 42.5935 94.93 42.6132 95.1073C42.6132 95.2057 42.6132 95.3042 42.6328 95.4027V95.4814C42.6328 95.6981 42.6328 95.9147 42.6328 96.1313V96.2101C42.6328 96.4267 42.6329 96.663 42.5935 96.8993C42.5935 97.0175 42.5738 97.1553 42.5541 97.2735C42.5541 97.372 42.5344 97.4507 42.5147 97.5492C42.5147 97.628 42.5147 97.7067 42.4753 97.7855C42.4753 97.8446 42.4753 97.9037 42.4359 97.9824C42.4359 98.0809 42.3965 98.1991 42.3768 98.2975V98.3369C42.3375 98.4747 42.3178 98.6126 42.2784 98.7505C42.2193 99.0262 42.1208 99.3215 42.0224 99.6169L41.3528 101.645H7.875Z" fill="white"/>
<path d="M43.8388 101.661L44.3902 98.2349C44.3902 98.1758 44.3902 98.1167 44.4099 98.0576V97.9985C44.4099 97.9789 44.4099 97.9395 44.4099 97.9198V97.841V97.7819C44.4099 97.7228 44.4099 97.6835 44.4295 97.6244V97.585V97.5456C44.4295 97.5259 44.4295 97.5062 44.4295 97.4865V97.4078V97.329C44.4295 97.2896 44.4295 97.2502 44.4295 97.2108V97.1518V97.0927C44.4295 97.073 44.4295 97.0533 44.4295 97.0139V96.9351C44.4295 96.7973 44.4492 96.6791 44.4492 96.5807V96.5216V96.4625C44.4492 96.4034 44.4492 96.3443 44.4492 96.2853C44.4492 95.7929 44.4492 95.2809 44.3902 94.7886C44.3902 94.6902 44.3902 94.5917 44.3508 94.4932C44.3114 94.1781 44.272 93.8827 44.2129 93.607C44.1735 93.3904 44.1342 93.1935 44.0948 93.0163C44.0751 92.9178 44.0554 92.839 44.0357 92.7406L43.9569 92.4058C43.8978 92.1498 43.7994 91.8938 43.7206 91.6181V91.5393C43.6812 91.4999 43.6812 91.4802 43.6615 91.4408V91.3818C43.6221 91.3424 43.6024 91.2833 43.6024 91.2439L42.0664 87.2266H75.7805L74.4414 91.2439C74.3823 91.4014 74.343 91.5393 74.2839 91.6968C74.1657 92.071 74.0279 92.4452 73.89 92.8193C73.7916 93.0753 73.6931 93.3313 73.5946 93.607C73.5552 93.7449 73.4962 93.8631 73.4371 94.0009C73.378 94.1388 73.3386 94.2766 73.2795 94.4144C73.1023 94.8871 72.8857 95.3794 72.6494 95.9308V95.9702C72.5312 96.2065 72.4328 96.4428 72.3146 96.6791C72.1964 96.9351 72.098 97.1714 71.9798 97.4275C71.8617 97.7032 71.7435 97.9592 71.6253 98.2152C71.5072 98.4515 71.389 98.7075 71.2709 98.9438C71.0936 99.318 70.9164 99.6724 70.7195 100.027L69.8924 101.622H43.7009L43.8388 101.661Z" fill="white"/>
<path d="M52.7162 117.997H35.8592L36.5878 114.452C36.8635 113.093 36.9423 111.695 36.7847 110.297C36.6863 109.332 36.4893 108.387 36.1939 107.5L34.9336 103.641H69.1794L65.7135 108.347C63.8624 110.868 61.7749 113.29 59.5496 115.535C58.9195 116.165 58.2696 116.776 57.6591 117.347L52.6965 121.896V118.016L52.7162 117.997Z" fill="white"/>
<path d="M23.2595 117.997L23.9882 114.452C24.2639 113.093 24.3427 111.695 24.1851 110.297C24.0866 109.332 23.8897 108.387 23.5943 107.501L22.334 103.621H31.7275L32.6136 104.803C33.8543 106.457 34.6223 108.426 34.8389 110.494C35.0359 112.443 34.7602 114.413 33.9921 116.205L33.2241 117.997H23.2792H23.2595Z" fill="white"/>
<path d="M7.87321 117.997V103.621H19.0981L19.9843 104.803C21.2249 106.457 21.993 108.426 22.2096 110.494C22.4065 112.443 22.1111 114.413 21.3628 116.185L20.5948 117.977H7.85352L7.87321 117.997Z" fill="white"/>
<path d="M7.875 126.192V119.969H20.7147L21.6009 121.288C22.6249 122.824 23.2551 124.616 23.452 126.448C23.6293 128.2 23.4323 129.914 22.8416 131.568L22.1917 133.36L20.2815 133.498C19.0802 133.577 17.8593 133.636 16.6383 133.655H15.3977L7.89469 126.172L7.875 126.192Z" fill="white"/>
<path d="M25.4177 129.067C25.5162 128.161 25.5162 127.216 25.4177 126.251C25.3389 125.424 25.1617 124.577 24.9254 123.769L23.7832 119.969H56.1188L46.5284 125.483C41.0538 128.634 35.146 130.898 28.9821 132.257L25.0042 133.124L25.4177 129.067Z" fill="white"/>
<path d="M127.199 68.9633L126.903 66.3442C126.352 61.3816 127.376 56.4584 129.838 52.0866C132.299 47.7345 135.982 44.3473 140.491 42.2599L143.071 41.0586L144.351 43.599C147.758 50.2945 149.924 57.7187 150.791 65.6943L151.145 68.9633H127.159H127.199Z" fill="white"/>
<path d="M7.98242 68.9739L8.33689 65.7049C10.188 48.9857 17.7501 34.728 30.2353 24.4681C36.793 19.0722 44.5126 14.8974 53.1972 12.0419C61.5666 9.28491 70.4481 7.88672 79.5856 7.88672C88.723 7.88672 97.5848 9.28491 105.954 12.0419C114.639 14.8974 122.358 19.0722 128.916 24.4681C133.209 27.9931 136.97 32.0301 140.082 36.461L142.051 39.2771L138.979 40.8131C134.41 43.0975 130.669 46.6619 128.128 51.1322C125.588 55.6221 124.446 60.7029 124.859 65.8033L125.115 68.9936H7.98242V68.9739ZM106.742 26.4964C107.096 26.6343 107.471 26.7918 107.805 26.9691C109.716 27.9143 111.389 29.3125 112.63 31.0455C112.768 31.2424 112.906 31.4393 113.024 31.6166L116.47 30.7698C114.304 27.5402 111.212 24.8422 107.412 23.1487H107.372C104.359 21.7308 100.992 20.9825 97.6439 20.9825C94.2961 20.9825 89.8652 21.9868 86.4584 23.897L88.3883 26.4767C90.9286 25.1179 93.725 24.3302 96.6002 24.1727L99.0421 24.0348L99.4162 25.5118C99.4162 25.5118 99.4162 25.5118 99.4359 25.5118C99.9086 25.5118 100.381 25.5315 100.854 25.5906L101.543 25.6693L101.642 25.4921L103.473 25.689C104.28 25.7678 105.068 25.9254 105.836 26.1617L106.88 26.2798L106.703 26.4571L106.742 26.4964Z" fill="white"/>
<path d="M17.0998 135.615L24.4255 135.063L31.2589 134.02L27.2022 139.711C27.1431 139.809 27.0643 139.888 27.0053 139.967L25.1344 142.133L17.0801 135.615H17.0998Z" fill="white"/>
<path d="M118.233 51.9706L118.489 49.509C118.942 45.0978 117.662 40.5488 115.024 37.2207L113.999 37.4767C112.779 40.0171 110.494 41.9273 107.717 42.6559C106.93 42.8725 106.103 42.971 105.276 42.971C100.884 42.971 97.0243 39.9974 95.9215 35.7437C95.6261 34.5818 95.5473 33.3609 95.6851 32.199L95.0156 32.3565L94.543 30.4463C92.7115 30.8796 90.9786 31.687 89.4425 32.8292L87.0794 34.6015L78.1191 22.5692L80.4823 20.7969C85.4843 17.0552 91.4315 15.0859 97.6741 15.0859C103.917 15.0859 106.083 16.0115 109.864 17.7839C115.949 20.5015 120.833 25.3656 123.61 31.4704C126.465 37.7918 126.701 44.6843 124.259 50.9269L123.275 53.4476L118.253 51.9903L118.233 51.9706Z" fill="white"/>
<path d="M106.925 38.3435C103.577 38.3435 100.643 36.0788 99.7961 32.8295C99.2841 30.8799 99.6189 28.7924 100.682 27.0792L101.667 25.5234L103.498 25.7204C104.995 25.8779 106.452 26.2915 107.811 26.961C109.721 27.9063 111.395 29.3045 112.636 31.0374C112.833 31.3131 113.01 31.5888 113.168 31.8448L114.113 33.4203L113.128 34.976C112.124 36.5317 110.588 37.6542 108.776 38.1268C108.166 38.2844 107.555 38.3632 106.925 38.3632V38.3435Z" fill="white"/>
<path d="M106.925 38.3513C103.577 38.3513 100.643 36.0866 99.7961 32.8373C99.2841 30.8877 99.6189 28.8003 100.682 27.087L101.667 25.5312L103.498 25.7282C104.995 25.8857 106.452 26.2993 107.811 26.9688C109.721 27.9141 111.395 29.3123 112.636 31.0452C112.833 31.3209 113.01 31.5966 113.168 31.8526L114.113 33.4281L113.128 34.9838C112.124 36.5395 110.588 37.662 108.776 38.1347C108.166 38.2922 107.555 38.371 106.925 38.371V38.3513Z" fill="white"/>
<path d="M108.037 34.7277C107.131 33.7037 106.107 32.8372 104.965 32.1283L107.82 26.9688C109.75 27.914 111.404 29.3122 112.645 31.0452L108.037 34.7277Z" fill="white"/>
<path d="M0 129.461V74.0647C0 51.1817 8.72392 31.9221 25.2265 18.3734C32.5522 12.3671 41.1186 7.71959 50.7287 4.54904C59.9056 1.53604 69.6142 0 79.5787 0C89.5433 0 99.2519 1.53604 108.409 4.54904C118.019 7.6999 126.585 12.3474 133.911 18.3537C150.414 31.9024 159.138 51.162 159.138 74.045V129.441L79.5787 209L0 129.461ZM72.6862 182.631V112.151C70.4216 115.321 67.9009 118.295 65.1242 121.072C55.3959 130.8 43.3833 137.298 30.13 140.055L72.6862 182.612V182.631ZM86.4712 182.631L145.353 123.75V76.8414H86.4712V92.7532C90.587 91.9655 94.7619 91.5717 98.9368 91.5717C110.831 91.5717 122.411 94.7422 132.415 100.768L129.992 106.125C124.439 104.352 118.708 103.466 112.958 103.466C107.208 103.466 106.479 103.762 103.309 104.313C112.072 105.278 120.481 108.133 127.925 112.722L125.522 118.059C120.678 116.582 115.695 115.833 110.713 115.833C105.731 115.833 104.352 116.148 101.261 116.739C109.197 117.724 116.778 120.402 123.474 124.656L121.072 129.992C116.936 128.791 112.682 128.181 108.448 128.181C104.214 128.181 102.206 128.515 99.1928 129.165C106.322 130.17 113.076 132.69 119.023 136.609L116.621 141.926C113.194 141.001 109.669 140.528 106.184 140.528C99.0746 140.528 92.3003 142.438 86.4712 146.042V182.651V182.631ZM17.6251 127.57C17.6251 127.413 17.6251 127.235 17.5857 127.078C17.5463 126.664 17.4478 126.27 17.3297 125.877H15.9315L17.6251 127.57ZM54.5885 112.092C54.8445 111.836 55.1005 111.58 55.3762 111.324C55.967 110.733 56.5381 110.142 57.0895 109.532H42.635C42.635 109.571 42.635 109.63 42.635 109.669C42.7137 110.477 42.7531 111.284 42.7334 112.092H54.5688H54.5885ZM16.3647 112.092C16.3844 111.776 16.3647 111.442 16.3647 111.107C16.3057 110.556 16.1678 110.024 15.9709 109.512H13.8047V112.072H16.3844L16.3647 112.092ZM66.4042 95.7465C66.4042 95.7465 66.4042 95.7269 66.4239 95.7072C66.5421 95.4708 66.6405 95.2345 66.739 95.0179C66.8375 94.8013 66.9359 94.5847 67.0344 94.3484V94.309C67.1525 94.0923 67.251 93.8757 67.3298 93.6591C67.3889 93.4819 67.4676 93.3243 67.5267 93.1668H50.2561C50.2955 93.3834 50.3152 93.6197 50.3349 93.8363C50.3349 93.9742 50.3546 94.112 50.3743 94.2499C50.4136 94.7422 50.453 95.2345 50.453 95.7269H66.3845L66.4042 95.7465ZM36.6877 95.7465V95.6481V95.5693C36.6877 95.4905 36.668 95.4118 36.6484 95.333C36.6484 95.333 36.6484 95.2148 36.6484 95.1951V95.0573C36.6287 95.0573 36.6287 95.0179 36.6287 95.0179V94.9391L36.609 94.8997C36.609 94.7816 36.5696 94.6831 36.5499 94.6044V94.5453C36.5105 94.4468 36.4908 94.368 36.4514 94.2696V94.2105C36.412 94.1317 36.3727 94.053 36.353 93.9939V93.9545C36.3136 93.856 36.2742 93.7773 36.2348 93.6985L36.1954 93.6197V93.5803C36.1757 93.5803 36.156 93.5409 36.156 93.5409C36.097 93.4228 36.0379 93.3046 35.9591 93.1668H13.8244V95.7269H36.7271L36.6877 95.7465ZM71.288 79.4015C71.4062 78.5547 71.5047 77.7079 71.5834 76.8414H57.4834C57.6212 77.6882 57.7 78.5547 57.7394 79.4015H71.3077H71.288ZM43.915 79.4015C43.8165 78.4956 43.5015 77.6095 42.9698 76.8414H36.5696C36.7074 77.6882 36.7862 78.535 36.8256 79.4015H43.915ZM23.0209 79.4015C22.9225 78.4956 22.6074 77.6095 22.0757 76.8414H13.785V79.4015H23.0209ZM144.486 63.0564C143.679 58.1135 142.32 53.4267 140.41 49.0548C138.185 50.5712 136.333 52.5799 134.975 54.9824C133.557 57.4834 132.769 60.2404 132.671 63.0564H144.486ZM118.886 63.0564C119.004 57.8575 120.382 52.7768 123.001 48.1884C125.542 43.7181 129.067 39.9764 133.301 37.2391C130.918 34.2655 128.2 31.4888 125.168 29.0075C119.181 24.0843 112.092 20.2639 104.116 17.6448C96.3373 15.0847 88.086 13.785 79.5787 13.785C71.0714 13.785 62.8201 15.0847 55.0415 17.6448C47.0659 20.2639 39.9764 24.0843 33.9898 29.0075C28.3577 33.6354 23.8086 39.169 20.4805 45.4314C17.6448 50.7878 15.6952 56.6957 14.6515 63.0368H118.886V63.0564Z" fill="white"/>
<path d="M80.7203 109.967L80.6021 109.692L79.1055 106.403L82.8668 105.536C83.0637 105.497 83.2607 105.458 83.4379 105.398H83.5561C83.5561 105.379 85.7223 110.794 85.7223 110.794L85.6041 110.873C85.4269 110.972 85.2496 111.09 85.0724 111.188L84.9542 111.247L82.1185 112.98L80.74 109.948L80.7203 109.967Z" fill="white"/>
<path d="M80.7203 109.967L80.6021 109.692L79.1055 106.403L82.8668 105.536C83.0637 105.497 83.2607 105.458 83.4379 105.398H83.5561C83.5561 105.379 85.7223 110.794 85.7223 110.794L85.6041 110.873C85.4269 110.972 85.2496 111.09 85.0724 111.188L84.9542 111.247L82.1185 112.98L80.74 109.948L80.7203 109.967Z" fill="white"/>
<path d="M80.7006 121.864C80.6809 121.825 80.6612 121.786 80.6415 121.727L79.1055 118.438L82.6305 117.591C82.729 117.571 82.8274 117.552 82.9259 117.532C83.0637 117.512 83.2213 117.473 83.3591 117.434L85.4663 122.849C85.3481 122.928 85.2299 123.007 85.0921 123.085L85.0133 123.145L82.1185 125.074L80.7006 121.864Z" fill="white"/>
<path d="M80.7006 121.864C80.6809 121.825 80.6612 121.786 80.6415 121.727L79.1055 118.438L82.6305 117.591C82.729 117.571 82.8274 117.552 82.9259 117.532C83.0637 117.512 83.2213 117.473 83.3591 117.434L85.4663 122.849C85.3481 122.928 85.2299 123.007 85.0921 123.085L85.0133 123.145L82.1185 125.074L80.7006 121.864Z" fill="white"/>
<path d="M80.74 133.86C80.7203 133.821 80.7006 133.761 80.6809 133.722L79.1055 130.394L82.729 129.606C82.8274 129.587 82.9062 129.567 83.0047 129.547C83.0637 129.547 83.1228 129.528 83.1819 129.508L85.2299 134.943C85.2299 134.943 85.2103 134.943 85.1906 134.963L85.1118 135.022H85.0724C85.0724 135.041 82.2563 136.932 82.2563 136.932L80.7794 133.86H80.74Z" fill="white"/>
<path d="M80.74 133.86C80.7203 133.821 80.7006 133.761 80.6809 133.722L79.1055 130.394L82.729 129.606C82.8274 129.587 82.9062 129.567 83.0047 129.547C83.0637 129.547 83.1228 129.528 83.1819 129.508L85.2299 134.943C85.2299 134.943 85.2103 134.943 85.1906 134.963L85.1118 135.022H85.0724C85.0724 135.041 82.2563 136.932 82.2563 136.932L80.7794 133.86H80.74Z" fill="white"/>
<path d="M75.6369 101.531V189.755L23.9629 138.081C24.2189 138.061 24.4749 138.022 24.7309 137.983L24.7703 138.022C24.7703 138.022 24.79 137.983 24.8097 137.983C39.2445 136.033 52.5569 129.456 63.0335 118.979C68.2127 113.8 72.4466 107.892 75.6369 101.531Z" fill="#E2C754"/>
<path d="M83.66 132.397C83.6058 132.433 83.5517 132.451 83.5156 132.487V132.415C83.5698 132.415 83.6239 132.397 83.66 132.379V132.397Z" fill="white" stroke="black" stroke-width="0.196928" stroke-miterlimit="10"/>
<path d="M84.2049 108.234C83.9686 108.372 83.752 108.51 83.5156 108.648V108.392C83.752 108.333 83.9686 108.293 84.2049 108.234Z" fill="white" stroke="black" stroke-width="0.196928" stroke-miterlimit="10"/>
<path d="M83.9285 120.309C83.7909 120.387 83.6533 120.486 83.5156 120.564V120.387C83.6533 120.368 83.7909 120.328 83.9285 120.309Z" fill="white" stroke="black" stroke-width="0.196928" stroke-miterlimit="10"/>
<path d="M148.303 74.0563V124.962L83.514 189.752V144.419C92.6909 138.176 104.979 135.695 117.386 139.062C107.992 132.859 95.9402 130.161 83.6715 132.386C94.2466 125.573 108.11 123.131 121.876 127.128C111.163 120.315 97.555 117.558 83.9079 120.315C95.8811 112.989 111.281 110.606 126.366 115.214C114.314 107.79 99.2092 104.974 84.1639 108.243C97.5156 100.386 114.432 98.0816 130.856 103.3C117.208 95.1079 100.194 92.2722 83.4746 96.4077V73.8594H148.264C148.264 73.9185 148.264 73.9775 148.264 74.0366L148.303 74.0563Z" fill="white" stroke="black" stroke-width="0.196928" stroke-miterlimit="10"/>
<path d="M39.207 93.3008C39.2661 93.478 39.3055 93.6553 39.3646 93.8128C39.3252 93.6356 39.2661 93.4583 39.207 93.3008ZM39.6206 96.6683C39.6206 96.491 39.6403 96.3335 39.6403 96.1562C39.6403 96.3335 39.6403 96.491 39.6206 96.6683ZM83.2796 108.445C83.319 108.543 83.3584 108.622 83.3978 108.72C83.4371 108.701 83.4765 108.681 83.5159 108.661V108.405C83.4371 108.405 83.3584 108.445 83.2796 108.464V108.445ZM83.319 120.437C83.3584 120.497 83.3781 120.575 83.4174 120.634C83.4568 120.615 83.4962 120.595 83.5356 120.575V120.398C83.4765 120.398 83.3977 120.418 83.3387 120.437H83.319ZM83.3584 132.45C83.3584 132.49 83.3977 132.529 83.4174 132.568C83.4568 132.549 83.4962 132.529 83.5356 132.509V132.43C83.4765 132.43 83.4371 132.43 83.3781 132.47L83.3584 132.45Z" fill="black"/>
<path d="M74.7202 73.8789C74.6218 76.7541 74.3067 79.5701 73.7947 82.3468H54.6139C55.0274 79.4914 54.6729 76.5571 53.5898 73.8789H74.7202Z" fill="#2A4F3A"/>
<path d="M46.569 82.3468H33.7096C34.1034 79.4914 33.7687 76.5571 32.6855 73.8789H44.3043C46.5887 76.1239 47.3961 79.3929 46.5493 82.3468H46.569Z" fill="#2A4F3A"/>
<path d="M25.6746 82.3468H10.8262V74.0561C10.8262 73.9971 10.8262 73.938 10.8262 73.8789H23.4296C25.714 76.1239 26.5214 79.3929 25.6746 82.3468Z" fill="white"/>
<path d="M39.6384 96.1149V96.174C39.6384 96.3512 39.6384 96.5087 39.6187 96.686C39.6187 96.7647 39.6187 96.8632 39.599 96.942C39.599 97.0207 39.599 97.1192 39.5596 97.198C39.5596 97.2374 39.5596 97.2768 39.5596 97.3161C39.5596 97.3555 39.5596 97.3949 39.5399 97.4343C39.5399 97.5328 39.5006 97.6115 39.5006 97.71C39.4809 97.8085 39.4612 97.9266 39.4415 98.0251C39.3824 98.2417 39.3233 98.4583 39.2446 98.6749H10.8672V90.207H37.4328C37.5116 90.3055 37.5904 90.3843 37.6691 90.4827C37.7479 90.5812 37.8267 90.66 37.8857 90.7584C37.9448 90.8372 38.0039 90.916 38.063 90.9947C38.1024 91.0538 38.1418 91.1129 38.1811 91.172C38.2205 91.2311 38.2599 91.2704 38.2796 91.3295C38.2993 91.3689 38.319 91.4083 38.3584 91.4477C38.3978 91.5068 38.4371 91.5855 38.4765 91.6446C38.5947 91.8415 38.7128 92.0582 38.8113 92.2748C38.8507 92.3339 38.8704 92.4126 38.9098 92.4717C38.9689 92.6096 39.0279 92.7474 39.087 92.8853C39.1461 93.0231 39.1855 93.161 39.2446 93.2988C39.3036 93.476 39.3627 93.6533 39.4021 93.8108C39.4415 93.9684 39.4809 94.1259 39.5203 94.2834C39.5203 94.3622 39.5399 94.4213 39.5596 94.5001C39.5596 94.5788 39.5793 94.6379 39.599 94.7167C39.599 94.7955 39.6187 94.8545 39.6187 94.9333C39.6187 95.0712 39.6581 95.2287 39.6581 95.3665C39.6581 95.4256 39.6581 95.4847 39.6581 95.5438C39.6581 95.5635 39.6581 95.6029 39.6581 95.6226C39.6581 95.7998 39.6581 95.9573 39.6581 96.1346L39.6384 96.1149Z" fill="#2A4F3A"/>
<path d="M71.7955 90.207C71.7364 90.3843 71.6774 90.5812 71.6183 90.7584C71.5001 91.1129 71.3623 91.4871 71.2441 91.8415C71.1654 92.0975 71.0669 92.3339 70.9684 92.5899C70.929 92.708 70.87 92.8262 70.8306 92.964C70.7912 93.0822 70.7321 93.22 70.6927 93.3382C70.4958 93.8305 70.2989 94.3228 70.1019 94.7955C70.0035 95.0318 69.8853 95.2878 69.7868 95.5241C69.6884 95.7604 69.5702 95.9967 69.4718 96.2527C69.3536 96.489 69.2551 96.7254 69.137 96.9617C69.0188 97.198 68.9007 97.4343 68.8022 97.6706C68.625 98.0054 68.4674 98.3599 68.2902 98.6946H47.3567C47.3567 98.6159 47.3764 98.5174 47.3961 98.4386C47.3961 98.3599 47.4158 98.2811 47.4355 98.2023C47.4355 98.1039 47.4552 98.0251 47.4749 97.9266C47.4749 97.8478 47.4946 97.7494 47.4946 97.6706C47.4946 97.5918 47.4946 97.5131 47.5143 97.4146C47.5143 97.3358 47.5143 97.2571 47.5143 97.198C47.5143 97.0208 47.534 96.8435 47.534 96.6663C47.534 96.5678 47.534 96.4693 47.534 96.3709C47.534 95.7604 47.534 95.1499 47.4749 94.5395C47.4749 94.4213 47.4552 94.3031 47.4355 94.1653C47.3961 93.7911 47.337 93.4367 47.2779 93.0625C47.2386 92.8262 47.1795 92.5702 47.1204 92.3339C47.1007 92.2157 47.0613 92.0975 47.0416 91.9794C47.0219 91.8612 46.9826 91.7628 46.9629 91.6446C46.8644 91.3098 46.7659 90.975 46.6478 90.6403C46.6281 90.5615 46.5887 90.4827 46.569 90.404C46.5493 90.3449 46.5296 90.2661 46.4902 90.207H71.8152H71.7955Z" fill="white"/>
<path d="M63.354 106.559C61.5817 108.961 59.6124 111.245 57.4659 113.412C56.8751 114.002 56.2843 114.574 55.6738 115.145V115.046H39.4863C39.8211 113.412 39.9195 111.698 39.7423 109.985C39.6242 108.804 39.3681 107.661 39.0137 106.578H63.354V106.559Z" fill="#2A4F3A"/>
<path d="M31.2548 115.027H26.8829C27.2177 113.392 27.3162 111.679 27.1193 109.965C27.0011 108.784 26.7451 107.642 26.3906 106.559H30.2307C31.1563 107.78 31.7274 109.237 31.8849 110.793C32.0425 112.25 31.8258 113.707 31.2548 115.027Z" fill="white"/>
<path d="M18.6657 115.027H10.8477V106.559H17.6417C18.5672 107.78 19.1383 109.237 19.2959 110.793C19.4534 112.25 19.2368 113.707 18.6657 115.027Z" fill="#2A4F3A"/>
<path d="M20.0621 130.547C18.9002 130.626 17.7384 130.685 16.5765 130.705L10.8262 124.954V122.906H19.1365C19.8849 124.048 20.3575 125.348 20.515 126.746C20.6529 128.046 20.4954 129.346 20.0621 130.547Z" fill="white"/>
<path d="M28.3761 129.346C28.4943 128.223 28.4943 127.081 28.3761 125.939C28.2776 124.895 28.061 123.891 27.7656 122.906H45.0756C39.8767 125.9 34.2446 128.066 28.3761 129.346Z" fill="#2A4F3A"/>
<path d="M147.874 65.9895H129.835C128.85 57.1277 133.714 48.6007 141.729 44.8984C144.959 51.2592 147.027 58.3289 147.874 65.9895Z" fill="#E2C754"/>
<path d="M110.234 32.762C109.269 31.4032 107.969 30.3201 106.512 29.6112C105.488 29.0992 104.346 28.7841 103.184 28.6659C102.573 29.6506 102.337 30.8912 102.652 32.1122C103.263 34.4753 105.665 35.8735 108.028 35.263C109.151 34.9676 110.057 34.2784 110.628 33.3725C110.51 33.1559 110.372 32.959 110.234 32.762ZM110.234 32.762C109.269 31.4032 107.969 30.3201 106.512 29.6112C105.488 29.0992 104.346 28.7841 103.184 28.6659C102.573 29.6506 102.337 30.8912 102.652 32.1122C103.263 34.4753 105.665 35.8735 108.028 35.263C109.151 34.9676 110.057 34.2784 110.628 33.3725C110.51 33.1559 110.372 32.959 110.234 32.762ZM137.646 38.1382C134.692 33.9239 131.148 30.1035 127.032 26.7163C120.75 21.5568 113.345 17.5592 105.035 14.8219C96.9608 12.1633 88.3945 10.8242 79.5918 10.8242C70.7891 10.8242 62.2227 12.1633 54.1289 14.8219C45.7989 17.5592 38.3944 21.5568 32.1124 26.7163C20.1588 36.5431 13.03 50.013 11.2773 65.9838H121.931C120.986 54.3454 127.327 43.278 137.666 38.1185L137.646 38.1382ZM121.498 49.8357H121.439C122.01 44.4399 120.376 38.9456 116.969 34.9086C116.673 34.5738 116.378 34.239 116.063 33.9239L111.79 34.9676C111.199 37.252 109.426 39.1425 106.985 39.7727C103.4 40.6982 99.7375 38.5517 98.7923 34.9676C98.1818 32.5848 98.9104 30.1626 100.525 28.5478C99.4225 28.4296 98.2803 28.4887 97.1775 28.7644L96.7836 27.1299C93.5146 27.3071 90.3638 28.4296 87.6855 30.4383L82.2503 23.1519C90.1274 17.2638 100.309 16.5745 108.658 20.454C119.726 25.3772 126.008 38.3351 121.518 49.8357H121.498ZM106.512 29.6112C105.488 29.0992 104.346 28.7841 103.184 28.6659C102.573 29.6506 102.337 30.8912 102.652 32.1122C103.263 34.4753 105.665 35.8735 108.028 35.263C109.151 34.9676 110.057 34.2784 110.628 33.3725C110.51 33.1559 110.372 32.959 110.234 32.762C109.269 31.4032 107.969 30.3201 106.512 29.6112ZM110.234 32.762C109.269 31.4032 107.969 30.3201 106.512 29.6112C105.488 29.0992 104.346 28.7841 103.184 28.6659C102.573 29.6506 102.337 30.8912 102.652 32.1122C103.263 34.4753 105.665 35.8735 108.028 35.263C109.151 34.9676 110.057 34.2784 110.628 33.3725C110.51 33.1559 110.372 32.959 110.234 32.762ZM110.234 32.762C109.269 31.4032 107.969 30.3201 106.512 29.6112C105.488 29.0992 104.346 28.7841 103.184 28.6659C102.573 29.6506 102.337 30.8912 102.652 32.1122C103.263 34.4753 105.665 35.8735 108.028 35.263C109.151 34.9676 110.057 34.2784 110.628 33.3725C110.51 33.1559 110.372 32.959 110.234 32.762Z" fill="#2A4F3A"/>
<path d="M24.8085 137.965C24.8085 137.965 24.788 138.006 24.7676 138.006L24.7266 137.965C24.7471 137.965 24.7675 137.965 24.8085 137.965Z" fill="black"/>
<path d="M108.637 20.4557C100.287 16.5762 90.1253 17.2654 82.2285 23.1536L87.6637 30.44C90.3617 28.4313 93.4928 27.3088 96.7618 27.1316L97.1557 28.7661C98.2585 28.4904 99.4007 28.4313 100.503 28.5494C98.8886 30.1839 98.1403 32.5865 98.7705 34.9693C99.6961 38.5534 103.379 40.6999 106.963 39.7744C109.405 39.1442 111.177 37.234 111.768 34.9693L116.041 33.9256C116.356 34.2407 116.652 34.5754 116.947 34.9102C120.354 38.9276 121.988 44.4416 121.417 49.8177H121.476C125.986 38.3171 119.684 25.3789 108.617 20.4557H108.637ZM108.046 35.245C105.683 35.8555 103.28 34.4376 102.67 32.0942C102.355 30.8732 102.571 29.6522 103.201 28.6479C104.363 28.7661 105.486 29.1008 106.529 29.5932C108.006 30.3021 109.286 31.3852 110.251 32.744C110.389 32.9409 110.527 33.1379 110.645 33.3545C110.074 34.2604 109.168 34.9496 108.046 35.245Z" fill="black"/>
<path d="M110.65 33.3511C110.079 34.257 109.173 34.9462 108.051 35.2416C105.688 35.8521 103.285 34.4342 102.675 32.0908C102.359 30.8698 102.576 29.6489 103.206 28.6445C104.368 28.7627 105.491 29.0975 106.534 29.5898C108.011 30.2987 109.291 31.3818 110.256 32.7406C110.394 32.9376 110.532 33.1345 110.65 33.3511Z" fill="black"/>
<path d="M110.65 33.3472C110.079 34.2531 109.173 34.9423 108.051 35.2377C105.688 35.8482 103.285 34.4303 102.675 32.0869C102.359 30.8659 102.576 29.645 103.206 28.6406C104.368 28.7588 105.491 29.0936 106.534 29.5859C108.011 30.2948 109.291 31.3779 110.256 32.7367C110.394 32.9337 110.532 33.1306 110.65 33.3472Z" fill="white"/>
<path d="M110.238 32.7563C109.154 31.5157 107.894 30.4523 106.516 29.6055C107.993 30.3144 109.273 31.3975 110.238 32.7563Z" fill="black"/>
<path d="M132.038 20.6217C125.007 14.8517 116.736 10.3617 107.481 7.329C98.5993 4.41446 89.2255 2.9375 79.576 2.9375C69.9265 2.9375 60.533 4.41446 51.6516 7.329C42.3959 10.3617 34.1446 14.8517 27.0946 20.6217C11.3009 33.5992 2.95117 52.0711 2.95117 74.0286V128.204L79.5563 204.809L156.161 128.204V74.0286C156.161 52.0514 147.812 33.5795 132.018 20.6217H132.038ZM147.871 65.9939H129.832C128.847 57.1322 133.712 48.6052 141.727 44.9029C144.956 51.2637 147.024 58.3334 147.871 65.9939ZM10.8283 74.0483C10.8283 73.9892 10.8283 73.9302 10.8283 73.8711H23.4317C25.7161 76.1161 26.5235 79.3851 25.6767 82.339H10.8283V74.0483ZM10.8283 90.2161H37.3939C37.4727 90.3146 37.5515 90.3934 37.6302 90.4918C37.709 90.5903 37.7878 90.6691 37.8469 90.7675C37.906 90.8463 37.965 90.9251 38.0241 91.0038C38.0635 91.0629 38.1029 91.122 38.1423 91.1811C38.1817 91.2402 38.221 91.2795 38.2407 91.3386C38.2604 91.378 38.2801 91.4174 38.3195 91.4568C38.3589 91.5159 38.3983 91.5946 38.4377 91.6537C38.5558 91.8506 38.674 92.0673 38.7724 92.2839C38.8118 92.343 38.8315 92.4217 38.8709 92.4808C38.93 92.6187 38.9891 92.7565 39.0481 92.8944C39.1072 93.0322 39.1466 93.1701 39.2057 93.3079C39.2648 93.4851 39.3238 93.6624 39.3632 93.8199C39.4026 93.9775 39.442 94.135 39.4814 94.2925C39.4814 94.3713 39.5011 94.4304 39.5208 94.5092C39.5208 94.5879 39.5405 94.647 39.5601 94.7258C39.5601 94.8046 39.5798 94.8636 39.5798 94.9424C39.5995 95.0803 39.6192 95.2378 39.6192 95.3757C39.6192 95.4347 39.6192 95.4938 39.6192 95.5529C39.6192 95.5726 39.6192 95.612 39.6192 95.6317C39.6192 95.8089 39.6192 95.9664 39.6192 96.1437V96.2028C39.6192 96.38 39.6192 96.5375 39.5995 96.7148C39.5995 96.7935 39.5995 96.892 39.5798 96.9708C39.5798 97.0495 39.5798 97.1283 39.5405 97.2268C39.5405 97.2662 39.5405 97.3055 39.5405 97.3449C39.5405 97.3843 39.5405 97.4237 39.5208 97.4631C39.5208 97.5616 39.4814 97.6403 39.4814 97.7388C39.4617 97.8373 39.442 97.9554 39.4223 98.0539C39.3632 98.2705 39.3041 98.4871 39.2254 98.7037H10.8283V90.2358V90.2161ZM53.6011 73.8711H74.7315C74.6331 76.7462 74.318 79.5623 73.806 82.339H54.6252C55.0387 79.4835 54.6842 76.5493 53.6011 73.8711ZM71.7973 90.2161C71.7382 90.3934 71.6792 90.5903 71.6201 90.7675C71.5019 91.122 71.3641 91.4962 71.2459 91.8506C71.1671 92.1066 71.0687 92.343 70.9702 92.599C70.9308 92.7171 70.8717 92.8353 70.8324 92.9731C70.793 93.0913 70.7339 93.2291 70.6945 93.3473C70.4976 93.8396 70.3007 94.3319 70.1037 94.8046C70.0053 95.0409 69.8871 95.2969 69.7886 95.5332C69.6902 95.7695 69.572 96.0058 69.4736 96.2618C69.3751 96.5178 69.2569 96.7345 69.1388 96.9708C69.0206 97.2071 68.9025 97.4434 68.804 97.6797C68.6268 98.0145 68.4692 98.369 68.292 98.7037H47.3585C47.3585 98.625 47.3782 98.5265 47.3979 98.4477C47.3979 98.369 47.4176 98.2902 47.4373 98.2114C47.4373 98.113 47.457 98.0342 47.4767 97.9357C47.4767 97.8569 47.4964 97.7585 47.4964 97.6797C47.4964 97.6009 47.4964 97.5222 47.5161 97.4237C47.5161 97.3449 47.5161 97.2662 47.5161 97.2071C47.5161 97.0299 47.5357 96.8526 47.5357 96.6754C47.5357 96.5769 47.5357 96.4785 47.5357 96.38C47.5357 95.7695 47.5357 95.159 47.4767 94.5486C47.4767 94.4304 47.457 94.3122 47.4373 94.1744C47.3979 93.8002 47.3388 93.4458 47.2797 93.0716C47.2404 92.8353 47.1813 92.5793 47.1222 92.343C47.1025 92.2248 47.0631 92.1066 47.0434 91.9885C47.0237 91.8703 46.9843 91.7719 46.9647 91.6537C46.8662 91.3189 46.7677 90.9842 46.6496 90.6494C46.6299 90.5706 46.5905 90.4918 46.5708 90.4131C46.5511 90.354 46.5314 90.2752 46.492 90.2161H71.817H71.7973ZM39.4617 115.029C39.7965 113.395 39.8949 111.681 39.7177 109.968C39.5995 108.786 39.3435 107.644 38.9891 106.561H63.3294C61.557 108.964 59.5878 111.248 57.4412 113.414C56.8505 114.005 56.2597 114.576 55.6492 115.147V115.049H39.4617V115.029ZM28.3549 125.939C28.2565 124.895 28.0398 123.891 27.7444 122.906H45.0545C39.8555 125.9 34.2234 128.066 28.3549 129.346C28.4731 128.223 28.4731 127.081 28.3549 125.939ZM27.1143 109.968C26.9961 108.786 26.7401 107.644 26.3856 106.561H30.2257C31.1513 107.782 31.7224 109.239 31.8799 110.795C32.0375 112.252 31.8209 113.71 31.2498 115.029H26.878C27.2127 113.395 27.3112 111.681 27.1143 109.968ZM46.5708 82.339H33.7114C34.1052 79.4835 33.7705 76.5493 32.6873 73.8711H44.3061C46.5905 76.1161 47.3979 79.3851 46.5511 82.339H46.5708ZM10.8283 106.561H17.6223C18.5479 107.782 19.119 109.239 19.2765 110.795C19.4341 112.252 19.2175 113.71 18.6464 115.029H10.8283V106.561ZM16.5786 130.705L10.8283 124.954V122.906H19.1387C19.887 124.048 20.3596 125.348 20.5172 126.746C20.655 128.046 20.4975 129.346 20.0642 130.547C18.9024 130.626 17.7405 130.685 16.5786 130.705ZM75.6374 189.744L23.9634 138.07C24.2194 138.05 24.4754 138.011 24.7314 137.971C24.7511 137.971 24.7708 137.971 24.8102 137.971C39.2451 136.022 52.5574 129.444 63.034 118.968C68.2132 113.788 72.4472 107.881 75.6374 101.52V189.744ZM11.2615 65.9939C13.0339 50.0034 20.143 36.5335 32.0966 26.7264C38.3786 21.5669 45.7831 17.5693 54.1132 14.832C62.1872 12.1734 70.7536 10.8343 79.576 10.8343C88.3984 10.8343 96.9451 12.1734 105.019 14.832C113.349 17.5693 120.754 21.5669 127.016 26.7264C131.132 30.1136 134.677 33.934 137.63 38.1483C127.292 43.3078 120.951 54.3752 121.896 66.0136H11.2615V65.9939ZM148.304 124.954L83.5145 189.744V144.411C92.6914 138.168 104.98 135.687 117.386 139.054C107.993 132.851 95.9407 130.153 83.6721 132.378C83.613 132.418 83.5539 132.438 83.5145 132.477C83.4752 132.497 83.4358 132.516 83.3964 132.536C83.3964 132.497 83.357 132.457 83.3373 132.418C83.3964 132.418 83.4358 132.398 83.4949 132.378C83.5539 132.378 83.613 132.359 83.6524 132.339C94.2275 125.525 108.091 123.083 121.856 127.081C111.144 120.267 97.5359 117.51 83.8887 120.267C83.7509 120.346 83.613 120.445 83.4752 120.523C83.4358 120.543 83.3964 120.563 83.357 120.582C83.3373 120.523 83.2979 120.445 83.2585 120.386C83.3176 120.386 83.3964 120.366 83.4555 120.346C83.5933 120.326 83.7312 120.287 83.869 120.267C95.8423 112.942 111.242 110.559 126.327 115.167C114.275 107.743 99.1703 104.927 84.125 108.196C83.8887 108.334 83.6721 108.471 83.4358 108.609C83.3964 108.629 83.357 108.649 83.3176 108.668C83.2782 108.57 83.2389 108.491 83.1995 108.393C83.2782 108.393 83.357 108.353 83.4358 108.334C83.6721 108.274 83.8887 108.235 84.125 108.176C97.4768 100.319 114.393 98.0145 130.817 103.233C117.17 95.0409 100.155 92.2051 83.4358 96.3406V73.7923H148.225C148.225 73.8514 148.225 73.9105 148.225 73.9696V124.876L148.304 124.954Z" fill="black"/>
<path d="M84.2065 108.227C83.9703 108.365 83.7537 108.502 83.5175 108.64C83.4781 108.66 83.4387 108.679 83.3994 108.699C83.36 108.601 83.3206 108.522 83.2812 108.424C83.36 108.424 83.4387 108.384 83.5175 108.365C83.7537 108.305 83.9703 108.266 84.2065 108.207V108.227Z" fill="black"/>
<path d="M84.2065 108.227C83.9703 108.365 83.7537 108.502 83.5175 108.64C83.4781 108.66 83.4387 108.679 83.3994 108.699C83.36 108.601 83.3206 108.522 83.2812 108.424C83.36 108.424 83.4387 108.384 83.5175 108.365C83.7537 108.305 83.9703 108.266 84.2065 108.207V108.227Z" fill="black"/>
<path d="M83.9232 120.309C83.7853 120.387 83.6475 120.486 83.5096 120.565C83.4702 120.584 83.4308 120.604 83.3914 120.624C83.3717 120.565 83.3324 120.486 83.293 120.427C83.3521 120.427 83.4308 120.407 83.4899 120.387C83.6278 120.368 83.7656 120.328 83.9035 120.309H83.9232Z" fill="black"/>
<path d="M83.9232 120.309C83.7853 120.387 83.6475 120.486 83.5096 120.565C83.4702 120.584 83.4308 120.604 83.3914 120.624C83.3717 120.565 83.3324 120.486 83.293 120.427C83.3521 120.427 83.4308 120.407 83.4899 120.387C83.6278 120.368 83.7656 120.328 83.9035 120.309H83.9232Z" fill="black"/>
<path d="M83.6796 132.399C83.6207 132.438 83.5618 132.458 83.5225 132.497C83.4832 132.517 83.4439 132.536 83.4046 132.556C83.4046 132.517 83.3653 132.477 83.3457 132.438C83.4046 132.438 83.4439 132.418 83.5028 132.399C83.5618 132.399 83.6207 132.379 83.66 132.359L83.6796 132.399Z" fill="black"/>
<path d="M83.6796 132.399C83.6207 132.438 83.5618 132.458 83.5225 132.497C83.4832 132.517 83.4439 132.536 83.4046 132.556C83.4046 132.517 83.3653 132.477 83.3457 132.438C83.4046 132.438 83.4439 132.418 83.5028 132.399C83.5618 132.399 83.6207 132.379 83.66 132.359L83.6796 132.399Z" fill="black"/>
</svg>
