<?xml version="1.0" encoding="UTF-8"?>
<svg id="Layer_1" data-name="Layer 1" xmlns="http://www.w3.org/2000/svg" viewBox="0 0 216 207">
  <defs>
    <style>
      .cls-1 {
        fill: #e41e2d;
      }

      .cls-2 {
        fill: #f1f2f2;
      }

      .cls-3 {
        fill: #fff;
      }

      .cls-4 {
        fill: #e31e2e;
      }

      .cls-5 {
        fill: #44b6e5;
      }

      .cls-6 {
        fill: #010202;
      }
    </style>
  </defs>
  <g>
    <path class="cls-6" d="M51.13,172.92c-.79-.05-1.48.54-1.53,1.33-.05.71-.1,1.42-.15,2.13-.05.79.55,1.47,1.34,1.52.03,0,.06,0,.09,0,.75,0,1.38-.58,1.43-1.34.05-.7.09-1.41.15-2.11.05-.79-.54-1.48-1.33-1.53ZM52.22,160.56c-.79-.08-1.49.5-1.57,1.29-.07.71-.14,1.42-.2,2.12-.08.79.5,1.49,1.29,1.56.04,0,.09,0,.14,0,.73,0,1.35-.56,1.42-1.3.06-.7.13-1.41.2-2.11.08-.79-.49-1.49-1.28-1.57h0ZM53.62,148.24c-.79-.1-1.5.46-1.6,1.25-.09.71-.17,1.41-.25,2.11-.1.79.47,1.5,1.25,1.6.05,0,.11.01.17.01.72,0,1.34-.54,1.43-1.27.08-.7.16-1.4.25-2.1.1-.79-.46-1.5-1.25-1.6ZM57.29,183.1h-.16c-.7,0-1.35-.04-1.92-.12-.79-.11-1.51.44-1.62,1.22-.11.79.44,1.51,1.22,1.62.71.1,1.49.15,2.32.15h.16c.8,0,1.43-.65,1.43-1.44,0-.79-.65-1.42-1.43-1.42h0ZM69.24,179.1c-.67-.42-1.55-.21-1.97.47-.26.42-.61.8-1.08,1.15-.63.48-.76,1.38-.28,2.01.28.37.71.57,1.14.57.3,0,.61-.09.86-.29.76-.57,1.34-1.2,1.79-1.94.42-.67.21-1.56-.47-1.97h0ZM70.04,52.47l.05.18c.03-.09.05-.17.08-.25-.04.03-.09.05-.13.08h0ZM76.62,172.47h-.44c-.57,0-1.12,0-1.65-.02h-.04c-.78,0-1.41.62-1.43,1.41-.01.79.62,1.45,1.41,1.46.54.01,1.12.02,1.71.02h.46c.79,0,1.43-.65,1.42-1.44,0-.79-.67-1.43-1.44-1.43h0ZM80.12,159.97c-.68,0-1.39,0-2.11,0h0c-.79,0-1.43.64-1.43,1.43,0,.79.63,1.44,1.42,1.44.37,0,.73,0,1.09,0s.71,0,1.06,0c.8,0,1.43-.65,1.43-1.44,0-.79-.64-1.42-1.44-1.43h0ZM88.89,171.84c-.7.06-1.4.12-2.1.17-.79.06-1.38.75-1.32,1.53.05.75.68,1.33,1.42,1.33.04,0,.08,0,.11,0,.72-.05,1.43-.11,2.14-.18.79-.07,1.37-.76,1.3-1.56-.07-.79-.77-1.37-1.55-1.3h0ZM93.95,160.57c-.08-.79-.79-1.36-1.57-1.27-.7.07-1.39.14-2.1.21-.79.07-1.37.77-1.3,1.56.07.75.7,1.3,1.42,1.3.04,0,.09,0,.13,0,.72-.06,1.43-.14,2.14-.21.79-.08,1.35-.79,1.27-1.58ZM102.72,171.42c-.13-.78-.88-1.3-1.66-1.17-.69.12-1.38.24-2.08.35-.78.13-1.31.86-1.19,1.64.11.71.73,1.21,1.42,1.21.08,0,.15,0,.23-.02.71-.11,1.42-.23,2.12-.35.78-.14,1.3-.88,1.16-1.66h0ZM106.18,158.45c-.17-.77-.93-1.26-1.71-1.09-.67.15-1.36.29-2.06.43-.77.15-1.28.91-1.13,1.68.14.68.74,1.15,1.41,1.15.09,0,.18,0,.28-.03.71-.14,1.42-.29,2.12-.44.77-.17,1.26-.94,1.09-1.71h0ZM110.02,25.73c-.13-.79-.85-1.32-1.64-1.2-.71.11-1.41.22-2.11.34-.78.13-1.31.86-1.19,1.65.11.7.73,1.2,1.42,1.2.08,0,.15,0,.23-.02.7-.11,1.39-.22,2.09-.33.78-.12,1.32-.85,1.2-1.63h0ZM114.78,168.51c-.22-.76-1.01-1.2-1.77-.99-.67.19-1.34.38-2.02.56-.77.2-1.23.99-1.02,1.75.17.64.75,1.06,1.38,1.06.13,0,.25-.01.37-.05.7-.19,1.39-.38,2.07-.57.76-.22,1.2-1.01.99-1.77h0ZM116.42,38c-.07-.79-.78-1.37-1.57-1.28-.37.04-.75.08-1.13.11-.33.04-.67.07-1,.11-.78.09-1.35.79-1.27,1.58.08.73.7,1.28,1.42,1.28.06,0,.11,0,.16,0,.33-.04.66-.07.99-.1.38-.04.75-.08,1.12-.11.78-.08,1.36-.78,1.28-1.57h0ZM117.98,154.61c-.3-.73-1.14-1.09-1.87-.79-.63.25-1.28.51-1.94.75-.75.27-1.13,1.09-.85,1.84.21.58.76.94,1.34.94.16,0,.33-.03.49-.09.68-.25,1.37-.52,2.03-.79.73-.3,1.09-1.14.79-1.87h0ZM116.86,106.06c-.7-.04-1.44-.08-2.17-.09-.8-.02-1.46.6-1.48,1.39s.61,1.45,1.4,1.47c.71.02,1.4.05,2.08.09.03,0,.06,0,.09,0,.75,0,1.38-.59,1.43-1.35.05-.79-.56-1.47-1.34-1.52h0ZM122.33,24.26c-.07-.79-.77-1.37-1.57-1.29-.7.07-1.41.14-2.13.22-.79.09-1.35.79-1.27,1.58.08.73.7,1.28,1.42,1.28.06,0,.11,0,.16,0,.71-.08,1.41-.15,2.1-.22.78-.08,1.37-.78,1.28-1.57h0ZM124.03,93.04c-.2-.76-.99-1.22-1.75-1.02-.67.18-1.35.35-2.04.51-.77.18-1.24.96-1.06,1.73.16.66.75,1.1,1.39,1.1.11,0,.22-.01.33-.04.7-.16,1.41-.34,2.1-.53.77-.2,1.22-.99,1.02-1.75h0ZM126.42,164.21c-.32-.73-1.16-1.06-1.89-.75-.63.27-1.29.54-1.93.8-.73.3-1.09,1.13-.79,1.87.22.56.76.9,1.33.9.18,0,.36-.04.53-.1.66-.27,1.33-.54,2-.83.72-.31,1.06-1.16.75-1.89h0ZM127.39,36.04c-.7,0-1.43,0-2.16.03-.8.02-1.42.67-1.41,1.47.02.78.65,1.4,1.43,1.4h.03c.71-.02,1.41-.03,2.1-.03h.02c.78,0,1.42-.64,1.42-1.43s-.65-1.43-1.44-1.43h0ZM128.57,148.21c-.48-.63-1.38-.75-2.01-.27-.27.2-.53.41-.8.6-.28.21-.57.41-.86.61-.65.45-.81,1.34-.37,1.99.28.41.73.62,1.18.62.28,0,.57-.08.82-.25.31-.22.62-.43.92-.66.29-.22.57-.43.85-.64.63-.48.74-1.38.26-2.01ZM129.44,108.83c-.66-.3-1.37-.59-2.09-.85-.75-.26-1.57.13-1.83.87-.27.75.13,1.57.87,1.83.65.23,1.27.48,1.85.75.19.09.4.13.6.13.54,0,1.06-.31,1.3-.83.33-.72.01-1.57-.71-1.9h0ZM133.25,22.17c-.71.02-1.42.04-2.15.07-.79.03-1.41.7-1.38,1.49.04.77.67,1.38,1.43,1.38.02,0,.04,0,.06,0,.71-.03,1.41-.05,2.11-.07.78-.02,1.41-.68,1.39-1.47s-.67-1.42-1.47-1.39h0ZM135.67,88.75c-.32-.72-1.17-1.05-1.89-.73-.63.28-1.28.55-1.92.82-.73.3-1.09,1.13-.79,1.87.23.56.77.89,1.33.89.18,0,.36-.04.54-.11.67-.27,1.34-.56,2-.85.72-.32,1.05-1.17.73-1.89ZM136.67,138.88c-.67-.42-1.55-.22-1.98.45-.35.56-.74,1.12-1.14,1.67-.47.64-.34,1.53.3,2.01.26.19.56.28.85.28.44,0,.87-.2,1.15-.58.45-.6.87-1.22,1.26-1.84.42-.67.22-1.56-.45-1.98h0ZM137.31,158.29c-.42-.67-1.3-.87-1.98-.45-.58.37-1.19.73-1.79,1.08-.68.4-.91,1.28-.52,1.96.27.46.75.71,1.24.71.25,0,.5-.06.73-.2.62-.36,1.24-.74,1.85-1.12.67-.42.87-1.3.46-1.98h0ZM139.04,117.78c-.36-.68-.76-1.34-1.2-1.97-.46-.65-1.35-.81-2-.36-.65.46-.81,1.35-.35,2,.37.53.71,1.09,1.01,1.66.25.49.75.77,1.27.77.22,0,.45-.05.67-.16.7-.37.97-1.23.61-1.94h0ZM139.79,126.98c-.8-.05-1.47.56-1.51,1.35-.04.67-.11,1.34-.2,1.99-.11.79.43,1.51,1.21,1.63.07.01.14.01.21.01.7,0,1.32-.51,1.42-1.23.11-.73.18-1.49.23-2.24.04-.79-.56-1.47-1.35-1.52h0ZM140.04,37.13c-.7-.14-1.43-.27-2.17-.38-.78-.12-1.51.42-1.63,1.2-.11.78.42,1.51,1.2,1.63.7.1,1.38.23,2.03.35.09.02.19.03.28.03.67,0,1.27-.47,1.41-1.15.15-.77-.35-1.53-1.13-1.68h0ZM142.18,95.26c-.29-.74-1.12-1.1-1.86-.82-.65.25-1.3.5-1.96.74-.74.27-1.13,1.1-.85,1.84.21.58.76.94,1.35.94.16,0,.33-.03.49-.09.68-.25,1.35-.5,2.01-.76.74-.29,1.1-1.12.81-1.86h0ZM142.75,102.55c-.7-.15-1.42-.29-2.17-.41-.78-.13-1.52.41-1.64,1.19-.13.78.41,1.52,1.19,1.65.69.11,1.37.24,2.02.38.1.02.2.03.3.03.66,0,1.25-.46,1.41-1.13.16-.77-.33-1.54-1.1-1.7h0ZM146.28,82.34c-.47-.64-1.37-.77-2-.3-.55.4-1.11.8-1.69,1.19-.65.44-.83,1.33-.39,1.99.28.41.73.63,1.19.63.27,0,.56-.08.8-.24.61-.41,1.21-.84,1.79-1.26.64-.47.77-1.37.3-2h0ZM146.93,150.49c-.54-.57-1.46-.59-2.03-.04-.49.47-1,.95-1.52,1.41-.59.53-.65,1.43-.12,2.03.28.32.67.48,1.07.48.34,0,.68-.12.95-.36.54-.48,1.08-.98,1.61-1.48.57-.55.59-1.46.04-2.03h0ZM145.81,22.48c-.7-.06-1.42-.11-2.15-.16-.79-.04-1.48.55-1.52,1.34-.05.79.55,1.47,1.34,1.52.71.05,1.41.1,2.08.16.05,0,.09,0,.13,0,.73,0,1.36-.56,1.42-1.31.07-.79-.52-1.48-1.3-1.55h0ZM152.01,42.01c-.6-.43-1.24-.84-1.9-1.22-.68-.4-1.57-.16-1.96.52-.4.68-.17,1.56.52,1.96.58.34,1.15.7,1.68,1.08.25.18.54.27.83.27.45,0,.89-.21,1.17-.6.46-.65.3-1.54-.34-2h0ZM153.32,89.81c-.39-.69-1.26-.93-1.95-.55-.6.34-1.22.68-1.84,1-.7.37-.96,1.24-.6,1.94.26.48.75.76,1.27.76.23,0,.46-.05.67-.16.64-.34,1.28-.68,1.9-1.04.69-.39.94-1.26.54-1.95h0ZM154.5,108.16c-.56-.52-1.16-1.01-1.79-1.46-.64-.46-1.53-.32-2,.32-.47.64-.32,1.54.32,2,.53.39,1.04.8,1.51,1.24.28.26.63.39.98.39.38,0,.77-.15,1.05-.46.54-.58.51-1.48-.07-2.03h0ZM154.36,140.59c-.68-.41-1.56-.18-1.96.51-.34.58-.71,1.17-1.09,1.74-.43.66-.25,1.55.4,1.99.24.16.52.24.8.24.46,0,.92-.23,1.2-.64.4-.61.8-1.24,1.17-1.86.4-.68.18-1.56-.5-1.96h0ZM154.77,73.34c-.63-.47-1.53-.32-2,.32-.4.54-.82,1.08-1.25,1.61-.5.61-.42,1.51.19,2.02.27.22.59.33.91.33.42,0,.82-.18,1.11-.52.48-.57.93-1.16,1.37-1.75.46-.64.32-1.54-.32-2h0ZM158.29,24.74c-.69-.21-1.39-.41-2.11-.58-.77-.19-1.55.27-1.75,1.04-.19.77.27,1.55,1.04,1.74.67.17,1.34.36,1.99.55.14.04.28.06.42.06.61,0,1.19-.4,1.37-1.02.23-.76-.2-1.56-.96-1.79h0ZM158.43,128.93c-.77-.17-1.53.33-1.7,1.1-.14.67-.3,1.33-.48,1.99-.2.77.25,1.56,1.01,1.76.13.03.25.05.38.05.63,0,1.21-.42,1.38-1.06.19-.71.37-1.43.52-2.14.16-.78-.33-1.54-1.11-1.7h0ZM159.73,52.61c-.22-.74-.48-1.47-.78-2.16-.31-.73-1.16-1.06-1.88-.75-.73.31-1.07,1.15-.76,1.88.26.6.48,1.22.67,1.84.18.62.75,1.03,1.37,1.03.14,0,.27-.02.41-.06.76-.23,1.2-1.02.97-1.78h0ZM159.05,61.79c-.78-.14-1.52.39-1.66,1.17-.11.66-.25,1.32-.42,1.96-.2.77.26,1.55,1.03,1.75.12.03.24.04.36.04.64,0,1.22-.43,1.38-1.07.19-.72.35-1.47.48-2.2.13-.78-.39-1.52-1.18-1.65h0ZM160.26,119.96c-.07-.77-.19-1.53-.35-2.25-.17-.77-.93-1.27-1.7-1.1-.77.16-1.27.93-1.1,1.7.13.62.24,1.28.3,1.94.08.74.7,1.29,1.43,1.29.05,0,.1,0,.14,0,.79-.08,1.37-.79,1.28-1.57h0ZM163.38,82.57c-.51-.61-1.42-.68-2.02-.17-.52.44-1.06.88-1.61,1.31-.62.49-.73,1.39-.24,2.01.29.36.71.55,1.13.55.31,0,.62-.1.88-.3.58-.45,1.14-.91,1.7-1.38.61-.51.68-1.41.17-2.02h0ZM169.78,30.49c-.57-.44-1.19-.87-1.82-1.29-.66-.43-1.55-.25-1.99.41-.43.66-.25,1.55.42,1.99.57.38,1.13.77,1.65,1.17.26.2.57.29.87.29.43,0,.86-.19,1.14-.56.48-.63.36-1.53-.27-2.01h0ZM171.59,73.3c-.65-.46-1.54-.32-2.01.32-.39.55-.81,1.1-1.24,1.64-.49.62-.39,1.52.23,2.01.26.21.58.31.89.31.42,0,.84-.19,1.13-.54.45-.57.9-1.16,1.33-1.74.46-.64.32-1.54-.32-2h0ZM177.8,40.73c-.29-.7-.61-1.39-.96-2.05-.37-.7-1.24-.97-1.94-.6-.7.37-.97,1.24-.6,1.94.31.58.59,1.19.84,1.8.23.56.77.89,1.33.89.18,0,.37-.04.54-.11.73-.3,1.08-1.14.78-1.87h0ZM176.92,62.15c-.75-.25-1.56.15-1.81.9-.22.64-.45,1.29-.71,1.92-.29.73.06,1.57.8,1.86.18.07.35.1.53.1.56,0,1.1-.34,1.33-.9.27-.68.53-1.38.76-2.07.26-.75-.15-1.57-.9-1.82ZM179.81,51.29c-.01-.79-.65-1.42-1.43-1.42h-.02c-.79.01-1.43.66-1.42,1.45,0,.14,0,.28,0,.43,0,.54-.02,1.08-.04,1.62-.03.79.58,1.46,1.37,1.49h.07c.76,0,1.39-.6,1.43-1.37.02-.58.04-1.17.04-1.75,0-.15,0-.31,0-.46h0ZM76.04,116.71c-.19-.04-.38-.03-.56,0l1.28.36c-.19-.18-.44-.32-.72-.37h0ZM65.62,51.58l-.32,1.15c.21-.13.38-.23.53-.33l-.21-.82h0Z"/>
    <g>
      <path class="cls-3" d="M51.13,172.92c-.79-.05-1.48.54-1.53,1.33-.05.71-.1,1.42-.15,2.13-.05.79.55,1.47,1.34,1.52.03,0,.06,0,.09,0,.75,0,1.38-.58,1.43-1.34.05-.7.09-1.41.15-2.11.05-.79-.54-1.48-1.33-1.53ZM52.22,160.56c-.79-.08-1.49.5-1.57,1.29-.07.71-.14,1.42-.2,2.12-.08.79.5,1.49,1.29,1.56.04,0,.09,0,.14,0,.73,0,1.35-.56,1.42-1.3.06-.7.13-1.41.2-2.11.08-.79-.49-1.49-1.28-1.57h0ZM53.62,148.24c-.79-.1-1.5.46-1.6,1.25-.09.71-.17,1.41-.25,2.11-.1.79.47,1.5,1.25,1.6.05,0,.11.01.17.01.72,0,1.34-.54,1.43-1.27.08-.7.16-1.4.25-2.1.1-.79-.46-1.5-1.25-1.6ZM57.29,183.1h-.16c-.7,0-1.35-.04-1.92-.12-.79-.11-1.51.44-1.62,1.22-.11.79.44,1.51,1.22,1.62.71.1,1.49.15,2.32.15h.16c.8,0,1.43-.65,1.43-1.44,0-.79-.65-1.42-1.43-1.42h0ZM69.24,179.1c-.67-.42-1.55-.21-1.97.47-.26.42-.61.8-1.08,1.15-.63.48-.76,1.38-.28,2.01.28.37.71.57,1.14.57.3,0,.61-.09.86-.29.76-.57,1.34-1.2,1.79-1.94.42-.67.21-1.56-.47-1.97h0ZM70.04,52.47l.05.18c.03-.09.05-.17.08-.25-.04.03-.09.05-.13.08h0ZM76.62,172.47h-.44c-.57,0-1.12,0-1.65-.02h-.04c-.78,0-1.41.62-1.43,1.41-.01.79.62,1.45,1.41,1.46.54.01,1.12.02,1.71.02h.46c.79,0,1.43-.65,1.42-1.44,0-.79-.67-1.43-1.44-1.43h0ZM80.12,159.97c-.68,0-1.39,0-2.11,0h0c-.79,0-1.43.64-1.43,1.43,0,.79.63,1.44,1.42,1.44.37,0,.73,0,1.09,0s.71,0,1.06,0c.8,0,1.43-.65,1.43-1.44,0-.79-.64-1.42-1.44-1.43h0ZM88.89,171.84c-.7.06-1.4.12-2.1.17-.79.06-1.38.75-1.32,1.53.05.75.68,1.33,1.42,1.33.04,0,.08,0,.11,0,.72-.05,1.43-.11,2.14-.18.79-.07,1.37-.76,1.3-1.56-.07-.79-.77-1.37-1.55-1.3h0ZM93.95,160.57c-.08-.79-.79-1.36-1.57-1.27-.7.07-1.39.14-2.1.21-.79.07-1.37.77-1.3,1.56.07.75.7,1.3,1.42,1.3.04,0,.09,0,.13,0,.72-.06,1.43-.14,2.14-.21.79-.08,1.35-.79,1.27-1.58ZM102.72,171.42c-.13-.78-.88-1.3-1.66-1.17-.69.12-1.38.24-2.08.35-.78.13-1.31.86-1.19,1.64.11.71.73,1.21,1.42,1.21.08,0,.15,0,.23-.02.71-.11,1.42-.23,2.12-.35.78-.14,1.3-.88,1.16-1.66h0ZM106.18,158.45c-.17-.77-.93-1.26-1.71-1.09-.67.15-1.36.29-2.06.43-.77.15-1.28.91-1.13,1.68.14.68.74,1.15,1.41,1.15.09,0,.18,0,.28-.03.71-.14,1.42-.29,2.12-.44.77-.17,1.26-.94,1.09-1.71h0ZM110.02,25.73c-.13-.79-.85-1.32-1.64-1.2-.71.11-1.41.22-2.11.34-.78.13-1.31.86-1.19,1.65.11.7.73,1.2,1.42,1.2.08,0,.15,0,.23-.02.7-.11,1.39-.22,2.09-.33.78-.12,1.32-.85,1.2-1.63h0ZM114.78,168.51c-.22-.76-1.01-1.2-1.77-.99-.67.19-1.34.38-2.02.56-.77.2-1.23.99-1.02,1.75.17.64.75,1.06,1.38,1.06.13,0,.25-.01.37-.05.7-.19,1.39-.38,2.07-.57.76-.22,1.2-1.01.99-1.77h0ZM116.42,38c-.07-.79-.78-1.37-1.57-1.28-.37.04-.75.08-1.13.11-.33.04-.67.07-1,.11-.78.09-1.35.79-1.27,1.58.08.73.7,1.28,1.42,1.28.06,0,.11,0,.16,0,.33-.04.66-.07.99-.1.38-.04.75-.08,1.12-.11.78-.08,1.36-.78,1.28-1.57h0ZM117.98,154.61c-.3-.73-1.14-1.09-1.87-.79-.63.25-1.28.51-1.94.75-.75.27-1.13,1.09-.85,1.84.21.58.76.94,1.34.94.16,0,.33-.03.49-.09.68-.25,1.37-.52,2.03-.79.73-.3,1.09-1.14.79-1.87h0ZM116.86,106.06c-.7-.04-1.44-.08-2.17-.09-.8-.02-1.46.6-1.48,1.39s.61,1.45,1.4,1.47c.71.02,1.4.05,2.08.09.03,0,.06,0,.09,0,.75,0,1.38-.59,1.43-1.35.05-.79-.56-1.47-1.34-1.52h0ZM122.33,24.26c-.07-.79-.77-1.37-1.57-1.29-.7.07-1.41.14-2.13.22-.79.09-1.35.79-1.27,1.58.08.73.7,1.28,1.42,1.28.06,0,.11,0,.16,0,.71-.08,1.41-.15,2.1-.22.78-.08,1.37-.78,1.28-1.57h0ZM124.03,93.04c-.2-.76-.99-1.22-1.75-1.02-.67.18-1.35.35-2.04.51-.77.18-1.24.96-1.06,1.73.16.66.75,1.1,1.39,1.1.11,0,.22-.01.33-.04.7-.16,1.41-.34,2.1-.53.77-.2,1.22-.99,1.02-1.75h0ZM126.42,164.21c-.32-.73-1.16-1.06-1.89-.75-.63.27-1.29.54-1.93.8-.73.3-1.09,1.13-.79,1.87.22.56.76.9,1.33.9.18,0,.36-.04.53-.1.66-.27,1.33-.54,2-.83.72-.31,1.06-1.16.75-1.89h0ZM127.39,36.04c-.7,0-1.43,0-2.16.03-.8.02-1.42.67-1.41,1.47.02.78.65,1.4,1.43,1.4h.03c.71-.02,1.41-.03,2.1-.03h.02c.78,0,1.42-.64,1.42-1.43s-.65-1.43-1.44-1.43h0ZM128.57,148.21c-.48-.63-1.38-.75-2.01-.27-.27.2-.53.41-.8.6-.28.21-.57.41-.86.61-.65.45-.81,1.34-.37,1.99.28.41.73.62,1.18.62.28,0,.57-.08.82-.25.31-.22.62-.43.92-.66.29-.22.57-.43.85-.64.63-.48.74-1.38.26-2.01ZM129.44,108.83c-.66-.3-1.37-.59-2.09-.85-.75-.26-1.57.13-1.83.87-.27.75.13,1.57.87,1.83.65.23,1.27.48,1.85.75.19.09.4.13.6.13.54,0,1.06-.31,1.3-.83.33-.72.01-1.57-.71-1.9h0ZM133.25,22.17c-.71.02-1.42.04-2.15.07-.79.03-1.41.7-1.38,1.49.04.77.67,1.38,1.43,1.38.02,0,.04,0,.06,0,.71-.03,1.41-.05,2.11-.07.78-.02,1.41-.68,1.39-1.47s-.67-1.42-1.47-1.39h0ZM135.67,88.75c-.32-.72-1.17-1.05-1.89-.73-.63.28-1.28.55-1.92.82-.73.3-1.09,1.13-.79,1.87.23.56.77.89,1.33.89.18,0,.36-.04.54-.11.67-.27,1.34-.56,2-.85.72-.32,1.05-1.17.73-1.89ZM136.67,138.88c-.67-.42-1.55-.22-1.98.45-.35.56-.74,1.12-1.14,1.67-.47.64-.34,1.53.3,2.01.26.19.56.28.85.28.44,0,.87-.2,1.15-.58.45-.6.87-1.22,1.26-1.84.42-.67.22-1.56-.45-1.98h0ZM137.31,158.29c-.42-.67-1.3-.87-1.98-.45-.58.37-1.19.73-1.79,1.08-.68.4-.91,1.28-.52,1.96.27.46.75.71,1.24.71.25,0,.5-.06.73-.2.62-.36,1.24-.74,1.85-1.12.67-.42.87-1.3.46-1.98h0ZM139.04,117.78c-.36-.68-.76-1.34-1.2-1.97-.46-.65-1.35-.81-2-.36-.65.46-.81,1.35-.35,2,.37.53.71,1.09,1.01,1.66.25.49.75.77,1.27.77.22,0,.45-.05.67-.16.7-.37.97-1.23.61-1.94h0ZM139.79,126.98c-.8-.05-1.47.56-1.51,1.35-.04.67-.11,1.34-.2,1.99-.11.79.43,1.51,1.21,1.63.07.01.14.01.21.01.7,0,1.32-.51,1.42-1.23.11-.73.18-1.49.23-2.24.04-.79-.56-1.47-1.35-1.52h0ZM140.04,37.13c-.7-.14-1.43-.27-2.17-.38-.78-.12-1.51.42-1.63,1.2-.11.78.42,1.51,1.2,1.63.7.1,1.38.23,2.03.35.09.02.19.03.28.03.67,0,1.27-.47,1.41-1.15.15-.77-.35-1.53-1.13-1.68h0ZM142.18,95.26c-.29-.74-1.12-1.1-1.86-.82-.65.25-1.3.5-1.96.74-.74.27-1.13,1.1-.85,1.84.21.58.76.94,1.35.94.16,0,.33-.03.49-.09.68-.25,1.35-.5,2.01-.76.74-.29,1.1-1.12.81-1.86h0ZM142.75,102.55c-.7-.15-1.42-.29-2.17-.41-.78-.13-1.52.41-1.64,1.19-.13.78.41,1.52,1.19,1.65.69.11,1.37.24,2.02.38.1.02.2.03.3.03.66,0,1.25-.46,1.41-1.13.16-.77-.33-1.54-1.1-1.7h0ZM146.28,82.34c-.47-.64-1.37-.77-2-.3-.55.4-1.11.8-1.69,1.19-.65.44-.83,1.33-.39,1.99.28.41.73.63,1.19.63.27,0,.56-.08.8-.24.61-.41,1.21-.84,1.79-1.26.64-.47.77-1.37.3-2h0ZM146.93,150.49c-.54-.57-1.46-.59-2.03-.04-.49.47-1,.95-1.52,1.41-.59.53-.65,1.43-.12,2.03.28.32.67.48,1.07.48.34,0,.68-.12.95-.36.54-.48,1.08-.98,1.61-1.48.57-.55.59-1.46.04-2.03h0ZM145.81,22.48c-.7-.06-1.42-.11-2.15-.16-.79-.04-1.48.55-1.52,1.34-.05.79.55,1.47,1.34,1.52.71.05,1.41.1,2.08.16.05,0,.09,0,.13,0,.73,0,1.36-.56,1.42-1.31.07-.79-.52-1.48-1.3-1.55h0ZM152.01,42.01c-.6-.43-1.24-.84-1.9-1.22-.68-.4-1.57-.16-1.96.52-.4.68-.17,1.56.52,1.96.58.34,1.15.7,1.68,1.08.25.18.54.27.83.27.45,0,.89-.21,1.17-.6.46-.65.3-1.54-.34-2h0ZM153.32,89.81c-.39-.69-1.26-.93-1.95-.55-.6.34-1.22.68-1.84,1-.7.37-.96,1.24-.6,1.94.26.48.75.76,1.27.76.23,0,.46-.05.67-.16.64-.34,1.28-.68,1.9-1.04.69-.39.94-1.26.54-1.95h0ZM154.5,108.16c-.56-.52-1.16-1.01-1.79-1.46-.64-.46-1.53-.32-2,.32-.47.64-.32,1.54.32,2,.53.39,1.04.8,1.51,1.24.28.26.63.39.98.39.38,0,.77-.15,1.05-.46.54-.58.51-1.48-.07-2.03h0ZM154.36,140.59c-.68-.41-1.56-.18-1.96.51-.34.58-.71,1.17-1.09,1.74-.43.66-.25,1.55.4,1.99.24.16.52.24.8.24.46,0,.92-.23,1.2-.64.4-.61.8-1.24,1.17-1.86.4-.68.18-1.56-.5-1.96h0ZM154.77,73.34c-.63-.47-1.53-.32-2,.32-.4.54-.82,1.08-1.25,1.61-.5.61-.42,1.51.19,2.02.27.22.59.33.91.33.42,0,.82-.18,1.11-.52.48-.57.93-1.16,1.37-1.75.46-.64.32-1.54-.32-2h0ZM158.29,24.74c-.69-.21-1.39-.41-2.11-.58-.77-.19-1.55.27-1.75,1.04-.19.77.27,1.55,1.04,1.74.67.17,1.34.36,1.99.55.14.04.28.06.42.06.61,0,1.19-.4,1.37-1.02.23-.76-.2-1.56-.96-1.79h0ZM158.43,128.93c-.77-.17-1.53.33-1.7,1.1-.14.67-.3,1.33-.48,1.99-.2.77.25,1.56,1.01,1.76.13.03.25.05.38.05.63,0,1.21-.42,1.38-1.06.19-.71.37-1.43.52-2.14.16-.78-.33-1.54-1.11-1.7h0ZM159.73,52.61c-.22-.74-.48-1.47-.78-2.16-.31-.73-1.16-1.06-1.88-.75-.73.31-1.07,1.15-.76,1.88.26.6.48,1.22.67,1.84.18.62.75,1.03,1.37,1.03.14,0,.27-.02.41-.06.76-.23,1.2-1.02.97-1.78h0ZM159.05,61.79c-.78-.14-1.52.39-1.66,1.17-.11.66-.25,1.32-.42,1.96-.2.77.26,1.55,1.03,1.75.12.03.24.04.36.04.64,0,1.22-.43,1.38-1.07.19-.72.35-1.47.48-2.2.13-.78-.39-1.52-1.18-1.65h0ZM160.26,119.96c-.07-.77-.19-1.53-.35-2.25-.17-.77-.93-1.27-1.7-1.1-.77.16-1.27.93-1.1,1.7.13.62.24,1.28.3,1.94.08.74.7,1.29,1.43,1.29.05,0,.1,0,.14,0,.79-.08,1.37-.79,1.28-1.57h0ZM163.38,82.57c-.51-.61-1.42-.68-2.02-.17-.52.44-1.06.88-1.61,1.31-.62.49-.73,1.39-.24,2.01.29.36.71.55,1.13.55.31,0,.62-.1.88-.3.58-.45,1.14-.91,1.7-1.38.61-.51.68-1.41.17-2.02h0ZM169.78,30.49c-.57-.44-1.19-.87-1.82-1.29-.66-.43-1.55-.25-1.99.41-.43.66-.25,1.55.42,1.99.57.38,1.13.77,1.65,1.17.26.2.57.29.87.29.43,0,.86-.19,1.14-.56.48-.63.36-1.53-.27-2.01h0ZM171.59,73.3c-.65-.46-1.54-.32-2.01.32-.39.55-.81,1.1-1.24,1.64-.49.62-.39,1.52.23,2.01.26.21.58.31.89.31.42,0,.84-.19,1.13-.54.45-.57.9-1.16,1.33-1.74.46-.64.32-1.54-.32-2h0ZM177.8,40.73c-.29-.7-.61-1.39-.96-2.05-.37-.7-1.24-.97-1.94-.6-.7.37-.97,1.24-.6,1.94.31.58.59,1.19.84,1.8.23.56.77.89,1.33.89.18,0,.37-.04.54-.11.73-.3,1.08-1.14.78-1.87h0ZM176.92,62.15c-.75-.25-1.56.15-1.81.9-.22.64-.45,1.29-.71,1.92-.29.73.06,1.57.8,1.86.18.07.35.1.53.1.56,0,1.1-.34,1.33-.9.27-.68.53-1.38.76-2.07.26-.75-.15-1.57-.9-1.82ZM179.81,51.29c-.01-.79-.65-1.42-1.43-1.42h-.02c-.79.01-1.43.66-1.42,1.45,0,.14,0,.28,0,.43,0,.54-.02,1.08-.04,1.62-.03.79.58,1.46,1.37,1.49h.07c.76,0,1.39-.6,1.43-1.37.02-.58.04-1.17.04-1.75,0-.15,0-.31,0-.46h0ZM76.04,116.71c-.19-.04-.38-.03-.56,0l1.28.36c-.19-.18-.44-.32-.72-.37h0ZM65.62,51.58l-.32,1.15c.21-.13.38-.23.53-.33l-.21-.82h0Z"/>
      <path class="cls-6" d="M172,14.54c-8.99-4.79-20.5-7.12-35.2-7.12-6.07,0-12.85.41-20.16,1.21-14.69,1.6-29.3,4.57-43.42,8.81-24.8,7.46-33.15,16.57-35.93,21.33-2.38,4.09-3.58,8.8-3.57,13.99,0,4.99,1.47,9.56,4.24,13.18,3.32,4.37,8.2,6.89,13.84,7.14-.67,2.52-1.32,5.06-1.96,7.61l-27.94-7.82-14.61-4.09,10.61,10.84,22.58,23.07-23.07,22.58-10.84,10.61,14.7-3.77,19.09-4.9c-2.74,17.04-4.63,33.57-5.63,49.18-.46,7.07,1.25,12.9,5.05,17.31,2.72,3.18,7.95,6.96,17.36,6.96.48,0,.97-.01,1.46-.03,6.56-.25,12.26-1.94,16.96-5.04,2.38-1.58,4.37-3.49,5.91-5.68,2.08-.08,4.29-.21,6.63-.39,16.97-1.27,32.12-4.85,45.03-10.66,13.09-5.9,23.37-13.7,30.58-23.17,7.55-9.93,11.38-21.14,11.38-33.31,0-8.48-2.76-16.15-7.99-22.27,5.3-3.7,9.89-7.84,13.76-12.41,9.06-10.72,13.66-22.81,13.66-35.94,0-16.53-7.79-29.4-22.51-37.22h0ZM20.26,128.18l24.22-23.71,1.75-1.71-1.15-1.18-24.26-24.79,28.06,7.85,6.96,1.95,7.2-25.73,1.42-5.07.86-3.06.32-1.15.21.82.56,2.18,1.49,5.79,1.13,4.42.84,3.27,4.81,18.73,7.79-2,2.46-.63,2.37-.61,3.96-1.02,9.89-2.54,8.75-2.24-2.14,2.09-20.89,20.45-2.94,2.88,1.83,1.86,18.15,18.55,5.45,5.56-18.21-5.1-8.67-2.43-3.47-.97-2.08-.58-2.58-.72-.31,1.12h0s-9.49,33.9-9.49,33.9l-6.72-26.21-1.13-4.41-1.18-4.6-1.07.28-3.81.98-9.52,2.44-20.81,5.34h0ZM174.01,81.91c-5.77,6.84-13.5,12.62-23.05,17.27,3.37,1.47,6.2,3.42,8.48,5.81,4.44,4.7,6.68,10.55,6.68,17.39,0,10.17-3.22,19.55-9.56,27.89-6.29,8.27-15.42,15.15-27.13,20.43-11.95,5.38-26.08,8.71-42.01,9.89-4.23.32-8.02.48-11.24.48h-.25c-.86,2.89-2.66,5.29-5.33,7.06-3.29,2.18-7.45,3.37-12.35,3.56-.38.01-.76.02-1.12.02-4.82,0-8.37-1.29-10.56-3.84-2.23-2.58-3.2-6.25-2.9-10.89,1.05-16.51,3.13-34.07,6.16-52.2l2.71-.7.63,2.45,2.43,9.49.73,2.84,4.23,16.5,3.77,14.67,4.08-14.58,2.63-9.41,1.33-4.75,2.26-8.07h0s.24-.87.24-.87h0s2.24-8,2.24-8l1.15.32,3.47.98c-1.64,9.86-2.93,19.43-3.86,28.59.4,0,.8,0,1.18,0,3.23,0,6.09-.09,8.52-.27,15.37-1.17,27.4-4.64,34.77-10.05,6.87-5.04,10.21-10.59,10.21-16.97,0-4.04-1.62-7.03-5.11-9.4-2.94-1.99-7.9-3.01-14.77-3.01-1.66,0-3.47.06-5.36.18h-.04c-.32.02-.62.03-.91.03h0c-2.98,0-5.28-.82-6.83-2.42-1.63-1.7-2.43-4.15-2.43-7.52,0-4.11.9-7.64,2.69-10.48,1.99-3.19,5.49-5.14,10.4-5.79,7.99-1.03,15.35-3.06,21.89-6.04,6.27-2.85,11.28-6.46,14.88-10.72,3.38-4.01,5.03-8.22,5.03-12.87,0-5.44-2.56-9.13-8.05-11.61-3.89-1.76-9.46-2.65-16.56-2.65-3.77,0-8.07.25-12.77.75-4.8.5-9.64,1.22-14.41,2.13-.92,3.69-2.3,9.05-3.86,15.08-1.24,4.8-2.6,10.09-3.96,15.45l-3.96,1.02-10.84,2.78-7.5-29.21-.05-.18-.48-1.9-3.77-14.67-4.09,14.58-2.3,8.23-1.23,4.41c-1.89.67-3.64,1.01-5.29,1.02h-.1c-4.08,0-6.43-1.97-7.68-3.62-1.61-2.1-2.42-4.72-2.42-7.78-.01-3.57.78-6.76,2.36-9.47,1.32-2.28,7.46-10.25,30.76-17.25,13.6-4.09,27.67-6.95,41.81-8.49,6.99-.77,13.45-1.15,19.2-1.15,13.2,0,23.33,1.98,30.99,6.06,11.78,6.25,17.76,16.11,17.76,29.31,0,10.95-3.88,21.1-11.54,30.16h0Z"/>
      <path class="cls-5" d="M155.59,58.9c0,5.47-1.96,10.54-5.88,15.18-3.93,4.65-9.3,8.56-16.13,11.67-6.83,3.11-14.46,5.24-22.9,6.34-3.81.5-6.42,1.87-7.84,4.14-1.42,2.27-2.14,5.12-2.14,8.57,0,2.38.48,4.06,1.42,5.04.95.98,2.61,1.43,4.99,1.3,10.46-.66,17.91.41,22.36,3.44,4.46,3.03,6.68,7.14,6.68,12.36,0,7.48-3.89,14.15-11.67,19.86-7.78,5.7-19.99,9.47-36.62,10.73-3.56.27-8.2.36-13.9.21.95-10.59,2.4-21.62,4.32-33.08l3.47.98c-1.64,9.86-2.93,19.43-3.86,28.59.4,0,.8,0,1.18,0,3.23,0,6.09-.09,8.52-.27,15.37-1.17,27.4-4.64,34.77-10.05,6.87-5.04,10.21-10.59,10.21-16.97,0-4.04-1.62-7.03-5.11-9.4-2.94-1.99-7.9-3.01-14.77-3.01-1.66,0-3.47.06-5.36.18h-.04c-.32.02-.62.03-.91.03h0c-2.98,0-5.28-.82-6.83-2.42-1.63-1.7-2.43-4.15-2.43-7.52,0-4.11.9-7.64,2.69-10.48,1.99-3.19,5.49-5.14,10.4-5.79,7.99-1.03,15.35-3.06,21.89-6.04,6.27-2.85,11.28-6.46,14.88-10.72,3.38-4.01,5.03-8.22,5.03-12.87,0-5.44-2.56-9.13-8.05-11.61-3.89-1.76-9.46-2.65-16.56-2.65-3.77,0-8.07.25-12.77.75-4.8.5-9.64,1.22-14.41,2.13-.92,3.69-2.3,9.05-3.86,15.08-1.24,4.8-2.6,10.09-3.96,15.45l-3.96,1.02c3.63-14.28,7.38-28.56,8.85-34.62,5.56-1.15,11.23-2.03,16.96-2.62,14.02-1.48,24.42-.86,31.19,2.2,6.77,3.06,10.16,7.98,10.16,14.87h0Z"/>
      <path class="cls-5" d="M185.55,51.75c0,10.95-3.88,21.1-11.54,30.16-5.77,6.84-13.5,12.62-23.05,17.27,3.37,1.47,6.2,3.42,8.48,5.81,4.44,4.7,6.68,10.55,6.68,17.39,0,10.17-3.22,19.55-9.56,27.89-6.29,8.27-15.42,15.15-27.13,20.43-11.95,5.38-26.08,8.71-42.01,9.89-4.23.32-8.02.48-11.24.48h-.25c-.86,2.89-2.66,5.29-5.33,7.06-3.29,2.18-7.45,3.37-12.35,3.56-.38.01-.76.02-1.12.02-4.82,0-8.37-1.29-10.56-3.84-2.23-2.58-3.2-6.25-2.9-10.89,1.05-16.51,3.13-34.07,6.16-52.2l2.71-.7.63,2.45c-2.93,17.68-4.9,34.56-5.94,50.67-.24,3.69.44,6.46,2.05,8.33,1.6,1.86,4.54,2.73,8.82,2.57,4.28-.16,7.78-1.16,10.51-2.96,2.73-1.81,4.16-4.39,4.28-7.72,3.57.15,8.32.04,14.26-.4,15.92-1.19,29.52-4.51,40.81-9.59,11.28-5.09,19.88-11.6,25.75-19.33,5.88-7.74,8.82-16.33,8.82-25.72,0-5.94-1.9-10.9-5.7-14.93-3.81-4.01-9.4-6.51-16.75-7.56,13.65-5,24.05-11.86,31.18-20.3,7.13-8.43,10.69-17.74,10.69-27.85,0-11.88-5.29-20.53-15.86-26.14-10.58-5.64-26.62-6.86-48.12-4.51-14.02,1.53-27.74,4.32-41.17,8.36-20.89,6.28-27.38,13.37-28.69,15.63-1.24,2.14-1.88,4.7-1.87,7.67,0,2.25.56,4.13,1.69,5.61,1.13,1.48,2.76,2.22,4.9,2.2,1.88-.02,4.06-.63,6.55-1.85l-1.23,4.41c-1.89.67-3.64,1.01-5.29,1.02h-.1c-4.08,0-6.43-1.97-7.68-3.62-1.61-2.1-2.42-4.72-2.42-7.78-.01-3.57.78-6.76,2.36-9.47,1.32-2.28,7.46-10.25,30.76-17.25,13.6-4.09,27.67-6.95,41.81-8.49,6.99-.77,13.45-1.15,19.2-1.15,13.2,0,23.33,1.98,30.99,6.06,11.78,6.25,17.76,16.11,17.76,29.31h0Z"/>
    </g>
    <g>
      <path class="cls-5" d="M65.62,51.58l-.32,1.15c.21-.13.38-.23.53-.33l-.21-.82h0ZM76.04,116.71c-.19-.04-.38-.03-.56,0l1.28.36c-.19-.18-.44-.32-.72-.37h0ZM179.81,51.29c-.01-.79-.65-1.42-1.43-1.42h-.02c-.79.01-1.43.66-1.42,1.45,0,.14,0,.28,0,.43,0,.54-.02,1.08-.04,1.62-.03.79.58,1.46,1.37,1.49h.07c.76,0,1.39-.6,1.43-1.37.02-.58.04-1.17.04-1.75,0-.15,0-.31,0-.46h0ZM176.92,62.15c-.75-.25-1.56.15-1.81.9-.22.64-.45,1.29-.71,1.92-.29.73.06,1.57.8,1.86.18.07.35.1.53.1.56,0,1.1-.34,1.33-.9.27-.68.53-1.38.76-2.07.26-.75-.15-1.57-.9-1.82ZM177.8,40.73c-.29-.7-.61-1.39-.96-2.05-.37-.7-1.24-.97-1.94-.6-.7.37-.97,1.24-.6,1.94.31.58.59,1.19.84,1.8.23.56.77.89,1.33.89.18,0,.37-.04.54-.11.73-.3,1.08-1.14.78-1.87h0ZM171.59,73.3c-.65-.46-1.54-.32-2.01.32-.39.55-.81,1.1-1.24,1.64-.49.62-.39,1.52.23,2.01.26.21.58.31.89.31.42,0,.84-.19,1.13-.54.45-.57.9-1.16,1.33-1.74.46-.64.32-1.54-.32-2h0ZM169.78,30.49c-.57-.44-1.19-.87-1.82-1.29-.66-.43-1.55-.25-1.99.41-.43.66-.25,1.55.42,1.99.57.38,1.13.77,1.65,1.17.26.2.57.29.87.29.43,0,.86-.19,1.14-.56.48-.63.36-1.53-.27-2.01h0ZM163.38,82.57c-.51-.61-1.42-.68-2.02-.17-.52.44-1.06.88-1.61,1.31-.62.49-.73,1.39-.24,2.01.29.36.71.55,1.13.55.31,0,.62-.1.88-.3.58-.45,1.14-.91,1.7-1.38.61-.51.68-1.41.17-2.02h0ZM160.26,119.96c-.07-.77-.19-1.53-.35-2.25-.17-.77-.93-1.27-1.7-1.1-.77.16-1.27.93-1.1,1.7.13.62.24,1.28.3,1.94.08.74.7,1.29,1.43,1.29.05,0,.1,0,.14,0,.79-.08,1.37-.79,1.28-1.57h0ZM159.05,61.79c-.78-.14-1.52.39-1.66,1.17-.11.66-.25,1.32-.42,1.96-.2.77.26,1.55,1.03,1.75.12.03.24.04.36.04.64,0,1.22-.43,1.38-1.07.19-.72.35-1.47.48-2.2.13-.78-.39-1.52-1.18-1.65h0ZM159.73,52.61c-.22-.74-.48-1.47-.78-2.16-.31-.73-1.16-1.06-1.88-.75-.73.31-1.07,1.15-.76,1.88.26.6.48,1.22.67,1.84.18.62.75,1.03,1.37,1.03.14,0,.27-.02.41-.06.76-.23,1.2-1.02.97-1.78h0ZM158.43,128.93c-.77-.17-1.53.33-1.7,1.1-.14.67-.3,1.33-.48,1.99-.2.77.25,1.56,1.01,1.76.13.03.25.05.38.05.63,0,1.21-.42,1.38-1.06.19-.71.37-1.43.52-2.14.16-.78-.33-1.54-1.11-1.7h0ZM158.29,24.74c-.69-.21-1.39-.41-2.11-.58-.77-.19-1.55.27-1.75,1.04-.19.77.27,1.55,1.04,1.74.67.17,1.34.36,1.99.55.14.04.28.06.42.06.61,0,1.19-.4,1.37-1.02.23-.76-.2-1.56-.96-1.79h0ZM154.77,73.34c-.63-.47-1.53-.32-2,.32-.4.54-.82,1.08-1.25,1.61-.5.61-.42,1.51.19,2.02.27.22.59.33.91.33.42,0,.82-.18,1.11-.52.48-.57.93-1.16,1.37-1.75.46-.64.32-1.54-.32-2h0ZM154.36,140.59c-.68-.41-1.56-.18-1.96.51-.34.58-.71,1.17-1.09,1.74-.43.66-.25,1.55.4,1.99.24.16.52.24.8.24.46,0,.92-.23,1.2-.64.4-.61.8-1.24,1.17-1.86.4-.68.18-1.56-.5-1.96h0ZM154.5,108.16c-.56-.52-1.16-1.01-1.79-1.46-.64-.46-1.53-.32-2,.32-.47.64-.32,1.54.32,2,.53.39,1.04.8,1.51,1.24.28.26.63.39.98.39.38,0,.77-.15,1.05-.46.54-.58.51-1.48-.07-2.03h0ZM153.32,89.81c-.39-.69-1.26-.93-1.95-.55-.6.34-1.22.68-1.84,1-.7.37-.96,1.24-.6,1.94.26.48.75.76,1.27.76.23,0,.46-.05.67-.16.64-.34,1.28-.68,1.9-1.04.69-.39.94-1.26.54-1.95h0ZM152.01,42.01c-.6-.43-1.24-.84-1.9-1.22-.68-.4-1.57-.16-1.96.52-.4.68-.17,1.56.52,1.96.58.34,1.15.7,1.68,1.08.25.18.54.27.83.27.45,0,.89-.21,1.17-.6.46-.65.3-1.54-.34-2h0ZM145.81,22.48c-.7-.06-1.42-.11-2.15-.16-.79-.04-1.48.55-1.52,1.34-.05.79.55,1.47,1.34,1.52.71.05,1.41.1,2.08.16.05,0,.09,0,.13,0,.73,0,1.36-.56,1.42-1.31.07-.79-.52-1.48-1.3-1.55h0ZM146.93,150.49c-.54-.57-1.46-.59-2.03-.04-.49.47-1,.95-1.52,1.41-.59.53-.65,1.43-.12,2.03.28.32.67.48,1.07.48.34,0,.68-.12.95-.36.54-.48,1.08-.98,1.61-1.48.57-.55.59-1.46.04-2.03h0ZM146.28,82.34c-.47-.64-1.37-.77-2-.3-.55.4-1.11.8-1.69,1.19-.65.44-.83,1.33-.39,1.99.28.41.73.63,1.19.63.27,0,.56-.08.8-.24.61-.41,1.21-.84,1.79-1.26.64-.47.77-1.37.3-2h0ZM142.75,102.55c-.7-.15-1.42-.29-2.17-.41-.78-.13-1.52.41-1.64,1.19-.13.78.41,1.52,1.19,1.65.69.11,1.37.24,2.02.38.1.02.2.03.3.03.66,0,1.25-.46,1.41-1.13.16-.77-.33-1.54-1.1-1.7h0ZM142.18,95.26c-.29-.74-1.12-1.1-1.86-.82-.65.25-1.3.5-1.96.74-.74.27-1.13,1.1-.85,1.84.21.58.76.94,1.35.94.16,0,.33-.03.49-.09.68-.25,1.35-.5,2.01-.76.74-.29,1.1-1.12.81-1.86h0ZM140.04,37.13c-.7-.14-1.43-.27-2.17-.38-.78-.12-1.51.42-1.63,1.2-.11.78.42,1.51,1.2,1.63.7.1,1.38.23,2.03.35.09.02.19.03.28.03.67,0,1.27-.47,1.41-1.15.15-.77-.35-1.53-1.13-1.68h0ZM139.79,126.98c-.8-.05-1.47.56-1.51,1.35-.04.67-.11,1.34-.2,1.99-.11.79.43,1.51,1.21,1.63.07.01.14.01.21.01.7,0,1.32-.51,1.42-1.23.11-.73.18-1.49.23-2.24.04-.79-.56-1.47-1.35-1.52h0ZM139.04,117.78c-.36-.68-.76-1.34-1.2-1.97-.46-.65-1.35-.81-2-.36-.65.46-.81,1.35-.35,2,.37.53.71,1.09,1.01,1.66.25.49.75.77,1.27.77.22,0,.45-.05.67-.16.7-.37.97-1.23.61-1.94h0ZM137.31,158.29c-.42-.67-1.3-.87-1.98-.45-.58.37-1.19.73-1.79,1.08-.68.4-.91,1.28-.52,1.96.27.46.75.71,1.24.71.25,0,.5-.06.73-.2.62-.36,1.24-.74,1.85-1.12.67-.42.87-1.3.46-1.98h0ZM136.67,138.88c-.67-.42-1.55-.22-1.98.45-.35.56-.74,1.12-1.14,1.67-.47.64-.34,1.53.3,2.01.26.19.56.28.85.28.44,0,.87-.2,1.15-.58.45-.6.87-1.22,1.26-1.84.42-.67.22-1.56-.45-1.98h0ZM135.67,88.75c-.32-.72-1.17-1.05-1.89-.73-.63.28-1.28.55-1.92.82-.73.3-1.09,1.13-.79,1.87.23.56.77.89,1.33.89.18,0,.36-.04.54-.11.67-.27,1.34-.56,2-.85.72-.32,1.05-1.17.73-1.89ZM133.25,22.17c-.71.02-1.42.04-2.15.07-.79.03-1.41.7-1.38,1.49.04.77.67,1.38,1.43,1.38.02,0,.04,0,.06,0,.71-.03,1.41-.05,2.11-.07.78-.02,1.41-.68,1.39-1.47s-.67-1.42-1.47-1.39h0ZM129.44,108.83c-.66-.3-1.37-.59-2.09-.85-.75-.26-1.57.13-1.83.87-.27.75.13,1.57.87,1.83.65.23,1.27.48,1.85.75.19.09.4.13.6.13.54,0,1.06-.31,1.3-.83.33-.72.01-1.57-.71-1.9h0ZM128.57,148.21c-.48-.63-1.38-.75-2.01-.27-.27.2-.53.41-.8.6-.28.21-.57.41-.86.61-.65.45-.81,1.34-.37,1.99.28.41.73.62,1.18.62.28,0,.57-.08.82-.25.31-.22.62-.43.92-.66.29-.22.57-.43.85-.64.63-.48.74-1.38.26-2.01ZM127.39,36.04c-.7,0-1.43,0-2.16.03-.8.02-1.42.67-1.41,1.47.02.78.65,1.4,1.43,1.4h.03c.71-.02,1.41-.03,2.1-.03h.02c.78,0,1.42-.64,1.42-1.43s-.65-1.43-1.44-1.43h0ZM126.42,164.21c-.32-.73-1.16-1.06-1.89-.75-.63.27-1.29.54-1.93.8-.73.3-1.09,1.13-.79,1.87.22.56.76.9,1.33.9.18,0,.36-.04.53-.1.66-.27,1.33-.54,2-.83.72-.31,1.06-1.16.75-1.89h0ZM124.03,93.04c-.2-.76-.99-1.22-1.75-1.02-.67.18-1.35.35-2.04.51-.77.18-1.24.96-1.06,1.73.16.66.75,1.1,1.39,1.1.11,0,.22-.01.33-.04.7-.16,1.41-.34,2.1-.53.77-.2,1.22-.99,1.02-1.75h0ZM122.33,24.26c-.07-.79-.77-1.37-1.57-1.29-.7.07-1.41.14-2.13.22-.79.09-1.35.79-1.27,1.58.08.73.7,1.28,1.42,1.28.06,0,.11,0,.16,0,.71-.08,1.41-.15,2.1-.22.78-.08,1.37-.78,1.28-1.57h0ZM116.86,106.06c-.7-.04-1.44-.08-2.17-.09-.8-.02-1.46.6-1.48,1.39s.61,1.45,1.4,1.47c.71.02,1.4.05,2.08.09.03,0,.06,0,.09,0,.75,0,1.38-.59,1.43-1.35.05-.79-.56-1.47-1.34-1.52h0ZM117.98,154.61c-.3-.73-1.14-1.09-1.87-.79-.63.25-1.28.51-1.94.75-.75.27-1.13,1.09-.85,1.84.21.58.76.94,1.34.94.16,0,.33-.03.49-.09.68-.25,1.37-.52,2.03-.79.73-.3,1.09-1.14.79-1.87h0ZM116.42,38c-.07-.79-.78-1.37-1.57-1.28-.37.04-.75.08-1.13.11-.33.04-.67.07-1,.11-.78.09-1.35.79-1.27,1.58.08.73.7,1.28,1.42,1.28.06,0,.11,0,.16,0,.33-.04.66-.07.99-.1.38-.04.75-.08,1.12-.11.78-.08,1.36-.78,1.28-1.57h0ZM114.78,168.51c-.22-.76-1.01-1.2-1.77-.99-.67.19-1.34.38-2.02.56-.77.2-1.23.99-1.02,1.75.17.64.75,1.06,1.38,1.06.13,0,.25-.01.37-.05.7-.19,1.39-.38,2.07-.57.76-.22,1.2-1.01.99-1.77h0ZM110.02,25.73c-.13-.79-.85-1.32-1.64-1.2-.71.11-1.41.22-2.11.34-.78.13-1.31.86-1.19,1.65.11.7.73,1.2,1.42,1.2.08,0,.15,0,.23-.02.7-.11,1.39-.22,2.09-.33.78-.12,1.32-.85,1.2-1.63h0ZM106.18,158.45c-.17-.77-.93-1.26-1.71-1.09-.67.15-1.36.29-2.06.43-.77.15-1.28.91-1.13,1.68.14.68.74,1.15,1.41,1.15.09,0,.18,0,.28-.03.71-.14,1.42-.29,2.12-.44.77-.17,1.26-.94,1.09-1.71h0ZM102.72,171.42c-.13-.78-.88-1.3-1.66-1.17-.69.12-1.38.24-2.08.35-.78.13-1.31.86-1.19,1.64.11.71.73,1.21,1.42,1.21.08,0,.15,0,.23-.02.71-.11,1.42-.23,2.12-.35.78-.14,1.3-.88,1.16-1.66h0ZM93.95,160.57c-.08-.79-.79-1.36-1.57-1.27-.7.07-1.39.14-2.1.21-.79.07-1.37.77-1.3,1.56.07.75.7,1.3,1.42,1.3.04,0,.09,0,.13,0,.72-.06,1.43-.14,2.14-.21.79-.08,1.35-.79,1.27-1.58ZM88.89,171.84c-.7.06-1.4.12-2.1.17-.79.06-1.38.75-1.32,1.53.05.75.68,1.33,1.42,1.33.04,0,.08,0,.11,0,.72-.05,1.43-.11,2.14-.18.79-.07,1.37-.76,1.3-1.56-.07-.79-.77-1.37-1.55-1.3h0ZM80.12,159.97c-.68,0-1.39,0-2.11,0h0c-.79,0-1.43.64-1.43,1.43,0,.79.63,1.44,1.42,1.44.37,0,.73,0,1.09,0s.71,0,1.06,0c.8,0,1.43-.65,1.43-1.44,0-.79-.64-1.42-1.44-1.43h0ZM76.62,172.47h-.44c-.57,0-1.12,0-1.65-.02h-.04c-.78,0-1.41.62-1.43,1.41-.01.79.62,1.45,1.41,1.46.54.01,1.12.02,1.71.02h.46c.79,0,1.43-.65,1.42-1.44,0-.79-.67-1.43-1.44-1.43h0ZM69.24,179.1c-.67-.42-1.55-.21-1.97.47-.26.42-.61.8-1.08,1.15-.63.48-.76,1.38-.28,2.01.28.37.71.57,1.14.57.3,0,.61-.09.86-.29.76-.57,1.34-1.2,1.79-1.94.42-.67.21-1.56-.47-1.97h0ZM57.29,183.1h-.16c-.7,0-1.35-.04-1.92-.12-.79-.11-1.51.44-1.62,1.22-.11.79.44,1.51,1.22,1.62.71.1,1.49.15,2.32.15h.16c.8,0,1.43-.65,1.43-1.44,0-.79-.65-1.42-1.43-1.42h0ZM53.62,148.24c-.79-.1-1.5.46-1.6,1.25-.09.71-.17,1.41-.25,2.11-.1.79.47,1.5,1.25,1.6.05,0,.11.01.17.01.72,0,1.34-.54,1.43-1.27.08-.7.16-1.4.25-2.1.1-.79-.46-1.5-1.25-1.6ZM52.22,160.56c-.79-.08-1.49.5-1.57,1.29-.07.71-.14,1.42-.2,2.12-.08.79.5,1.49,1.29,1.56.04,0,.09,0,.14,0,.73,0,1.35-.56,1.42-1.3.06-.7.13-1.41.2-2.11.08-.79-.49-1.49-1.28-1.57h0ZM51.13,172.92c-.79-.05-1.48.54-1.53,1.33-.05.71-.1,1.42-.15,2.13-.05.79.55,1.47,1.34,1.52.03,0,.06,0,.09,0,.75,0,1.38-.58,1.43-1.34.05-.7.09-1.41.15-2.11.05-.79-.54-1.48-1.33-1.53Z"/>
      <path class="cls-3" d="M166.1,25.61c-10.58-5.64-26.62-6.86-48.12-4.51-14.02,1.53-27.74,4.32-41.17,8.36-20.89,6.28-27.38,13.37-28.69,15.63-1.24,2.14-1.88,4.7-1.87,7.67,0,2.25.56,4.13,1.69,5.61,1.13,1.48,2.76,2.22,4.9,2.2,1.88-.02,4.06-.63,6.55-1.85l2.3-8.23,4.09-14.58,3.77,14.67.48,1.9s.09-.05.13-.08c-.03.08-.05.16-.08.25l7.5,29.21,10.84-2.78c3.63-14.28,7.38-28.56,8.85-34.62,5.56-1.15,11.23-2.03,16.96-2.62,14.02-1.48,24.42-.86,31.19,2.2,6.77,3.06,10.16,7.98,10.16,14.87,0,5.47-1.96,10.54-5.88,15.18-3.93,4.65-9.3,8.56-16.13,11.67-6.83,3.11-14.46,5.24-22.9,6.34-3.81.5-6.42,1.87-7.84,4.14-1.42,2.27-2.14,5.12-2.14,8.57,0,2.38.48,4.06,1.42,5.04.95.98,2.61,1.43,4.99,1.3,10.46-.66,17.91.41,22.36,3.44,4.46,3.03,6.68,7.14,6.68,12.36,0,7.48-3.89,14.15-11.67,19.86-7.78,5.7-19.99,9.47-36.62,10.73-3.56.27-8.2.36-13.9.21.95-10.59,2.4-21.62,4.32-33.08l-1.15-.32-2.24,7.99h0s-.24.87-.24.87h0s-2.26,8.08-2.26,8.08l-1.33,4.75-2.63,9.41-4.08,14.58-3.77-14.67-4.23-16.5-.73-2.84-2.43-9.49c-2.93,17.68-4.9,34.56-5.94,50.67-.24,3.69.44,6.46,2.05,8.33,1.6,1.86,4.54,2.73,8.82,2.57,4.28-.16,7.78-1.16,10.51-2.96,2.73-1.81,4.16-4.39,4.28-7.72,3.57.15,8.32.04,14.26-.4,15.92-1.19,29.52-4.51,40.81-9.59,11.28-5.09,19.88-11.6,25.75-19.33,5.88-7.74,8.82-16.33,8.82-25.72,0-5.94-1.9-10.9-5.7-14.93-3.81-4.01-9.4-6.51-16.75-7.56,13.65-5,24.05-11.86,31.18-20.3,7.13-8.43,10.69-17.74,10.69-27.85,0-11.88-5.29-20.53-15.86-26.14h0ZM50.38,50.27c-.14,0-.28-.02-.42-.06-.76-.23-1.18-1.04-.95-1.79.25-.8.58-1.56.98-2.24.4-.68,1.28-.92,1.96-.52.69.4.92,1.28.52,1.96-.29.5-.53,1.05-.72,1.65-.19.62-.76,1.01-1.37,1.01h0ZM55.74,57.89c-.86.27-1.66.44-2.39.5-.04,0-.08,0-.11,0-.74,0-1.37-.57-1.43-1.32-.06-.79.52-1.48,1.32-1.55.51-.04,1.1-.17,1.76-.38.76-.24,1.56.18,1.8.94.24.76-.18,1.56-.94,1.8h0ZM61.71,40.77c-.63.33-1.24.66-1.82.99-.22.13-.47.19-.71.19-.5,0-.98-.26-1.24-.72-.39-.69-.15-1.56.54-1.95.61-.35,1.25-.7,1.91-1.04.7-.37,1.57-.1,1.94.61.37.7.1,1.57-.61,1.94h0ZM72.93,36c-.68.24-1.33.48-1.98.72-.16.06-.33.09-.5.09-.58,0-1.13-.35-1.34-.93-.28-.74.1-1.57.84-1.85.66-.24,1.33-.49,2.03-.73.75-.27,1.57.13,1.82.87.27.75-.13,1.57-.87,1.83ZM105.05,108.41c-.16.06-.32.09-.49.09-.59,0-1.13-.37-1.35-.95-.23-.65-.35-1.51-.37-2.57-.01-.79.62-1.44,1.42-1.45h.02c.79,0,1.42.63,1.43,1.42,0,1,.14,1.48.2,1.63.27.75-.12,1.57-.87,1.84h0ZM110.7,97.16c-.68.12-1.28.28-1.8.47-.16.06-.33.09-.51.09-.58,0-1.13-.35-1.34-.93-.28-.74.1-1.57.85-1.85.68-.25,1.46-.46,2.31-.61.78-.14,1.52.38,1.66,1.17.14.78-.38,1.52-1.17,1.66h0ZM51.77,151.6c.08-.7.16-1.41.25-2.11.1-.79.81-1.34,1.6-1.25.79.1,1.35.81,1.25,1.6-.09.7-.17,1.41-.25,2.1-.09.73-.71,1.27-1.43,1.27-.05,0-.11,0-.17-.01-.79-.09-1.35-.81-1.25-1.6ZM52.31,176.57c-.05.76-.68,1.34-1.43,1.34-.03,0-.06,0-.09,0-.79-.05-1.39-.73-1.34-1.52.05-.71.1-1.42.15-2.13.05-.79.74-1.38,1.53-1.33.79.06,1.39.74,1.33,1.53-.05.7-.1,1.41-.15,2.11ZM53.5,162.13c-.07.7-.14,1.41-.2,2.11-.07.74-.7,1.3-1.42,1.3-.05,0-.1,0-.14,0-.79-.08-1.37-.77-1.29-1.56.06-.71.13-1.41.2-2.12.08-.79.78-1.37,1.57-1.29s1.37.78,1.28,1.57h0ZM57.29,185.97h-.16c-.83,0-1.61-.05-2.32-.15-.78-.11-1.33-.84-1.22-1.62.11-.78.84-1.33,1.62-1.22.57.08,1.22.12,1.92.12h.16c.79,0,1.43.63,1.43,1.42,0,.79-.63,1.44-1.43,1.44h0ZM69.7,181.07c-.45.73-1.04,1.37-1.79,1.94-.26.2-.56.29-.86.29-.44,0-.86-.2-1.14-.57-.48-.63-.35-1.53.28-2.01.47-.35.82-.73,1.08-1.15.42-.67,1.3-.88,1.97-.47.68.42.89,1.3.47,1.97h0ZM76.64,175.34h-.46c-.59,0-1.16,0-1.71-.02-.79-.01-1.42-.67-1.41-1.46.02-.78.66-1.41,1.43-1.41h.04c.52.01,1.08.02,1.65.02h.44c.77,0,1.44.63,1.44,1.43,0,.79-.63,1.44-1.42,1.44h0ZM80.14,162.84c-.35,0-.7,0-1.06,0s-.72,0-1.09,0c-.79,0-1.43-.65-1.42-1.44,0-.79.65-1.43,1.43-1.43h0c.72,0,1.43,0,2.11,0,.8,0,1.44.63,1.44,1.43,0,.79-.63,1.44-1.43,1.44h0ZM89.14,174.7c-.71.06-1.43.12-2.14.18-.03,0-.07,0-.11,0-.74,0-1.37-.58-1.42-1.33-.06-.79.53-1.48,1.32-1.53.7-.05,1.41-.11,2.1-.17.79-.07,1.48.51,1.55,1.3.07.79-.51,1.49-1.3,1.56h0ZM92.68,162.14c-.71.08-1.42.15-2.14.21-.04,0-.09,0-.13,0-.73,0-1.35-.56-1.42-1.3-.08-.79.51-1.48,1.3-1.56.71-.07,1.4-.14,2.1-.21.78-.09,1.49.48,1.57,1.27.09.79-.48,1.49-1.27,1.58ZM101.56,173.08c-.7.12-1.41.24-2.12.35-.08.01-.15.02-.23.02-.69,0-1.3-.5-1.42-1.21-.12-.78.41-1.52,1.19-1.64.7-.11,1.39-.23,2.08-.35.78-.13,1.52.38,1.66,1.17.14.78-.38,1.52-1.16,1.66h0ZM105.09,160.16c-.7.15-1.41.3-2.12.44-.09.02-.19.03-.28.03-.67,0-1.27-.47-1.41-1.15-.15-.78.35-1.53,1.13-1.68.7-.14,1.38-.28,2.06-.43.77-.17,1.54.32,1.71,1.09.18.77-.32,1.54-1.09,1.71h0ZM113.8,170.29c-.68.2-1.37.39-2.07.57-.13.03-.25.05-.37.05-.63,0-1.21-.42-1.38-1.06-.21-.77.25-1.55,1.02-1.75.68-.18,1.35-.37,2.02-.56.76-.22,1.56.22,1.77.99.22.76-.22,1.56-.99,1.77h0ZM117.19,156.48c-.66.27-1.35.53-2.03.79-.16.06-.33.09-.49.09-.58,0-1.14-.36-1.34-.94-.27-.75.11-1.57.85-1.84.65-.24,1.3-.49,1.94-.75.73-.3,1.57.05,1.87.79.3.73-.06,1.57-.79,1.87h0ZM125.67,166.09c-.67.28-1.33.56-2,.83-.18.07-.35.1-.53.1-.57,0-1.11-.34-1.33-.9-.3-.73.06-1.57.79-1.87.65-.26,1.3-.53,1.93-.8.73-.32,1.57.02,1.89.75.31.73-.03,1.57-.75,1.89h0ZM128.31,150.22c-.28.22-.57.43-.85.64-.31.22-.61.44-.92.66-.25.17-.53.25-.82.25-.45,0-.9-.22-1.18-.62-.45-.65-.29-1.54.37-1.99.29-.2.58-.41.86-.61.27-.2.54-.4.8-.6.63-.48,1.53-.36,2.01.27.48.63.37,1.53-.26,2.01ZM158.21,116.61c.77-.17,1.53.33,1.7,1.1.15.73.28,1.48.35,2.25.09.79-.49,1.49-1.28,1.57-.05,0-.09,0-.14,0-.73,0-1.35-.55-1.43-1.29-.06-.67-.17-1.32-.3-1.94-.17-.77.33-1.54,1.1-1.7h0ZM156.25,132.02c.18-.65.34-1.32.48-1.99.16-.77.92-1.27,1.7-1.1.78.16,1.27.92,1.11,1.7-.15.72-.33,1.44-.52,2.14-.17.64-.75,1.06-1.38,1.06-.13,0-.25-.02-.38-.05-.76-.21-1.22-1-1.01-1.76h0ZM154.86,142.56c-.37.62-.76,1.25-1.17,1.86-.28.42-.73.64-1.2.64-.28,0-.55-.08-.8-.24-.66-.44-.84-1.33-.4-1.99.38-.57.75-1.16,1.09-1.74.41-.68,1.28-.91,1.96-.51.68.41.9,1.28.5,1.96h0ZM150.72,107.02c.46-.64,1.36-.79,2-.32.63.46,1.23.95,1.79,1.46.58.54.61,1.45.07,2.03-.29.3-.67.46-1.05.46-.35,0-.7-.13-.98-.39-.47-.43-.98-.85-1.51-1.24-.64-.46-.79-1.36-.32-2h0ZM116.78,108.93s-.06,0-.09,0c-.67-.04-1.37-.07-2.08-.09-.79-.02-1.42-.68-1.4-1.47.02-.79.68-1.41,1.48-1.39.73.02,1.47.05,2.17.09.79.05,1.39.73,1.34,1.52-.05.76-.68,1.35-1.43,1.35h0ZM123.01,94.8c-.7.18-1.4.36-2.1.53-.11.03-.22.04-.33.04-.65,0-1.24-.44-1.39-1.1-.18-.77.29-1.54,1.06-1.73.68-.16,1.36-.33,2.04-.51.76-.2,1.55.26,1.75,1.02.2.77-.25,1.55-1.02,1.75h0ZM130.14,110.73c-.24.52-.76.83-1.3.83-.2,0-.41-.04-.6-.13-.58-.27-1.21-.52-1.85-.75-.74-.26-1.14-1.08-.87-1.83.27-.75,1.08-1.14,1.83-.87.72.25,1.43.54,2.09.85.72.33,1.04,1.18.71,1.9h0ZM132.95,91.49c-.18.07-.36.11-.54.11-.57,0-1.1-.34-1.33-.89-.3-.73.06-1.57.79-1.87.64-.27,1.29-.54,1.92-.82.73-.32,1.57,0,1.89.73.32.72-.01,1.57-.73,1.89-.65.29-1.33.58-2,.85ZM133.55,140.99c.41-.54.79-1.11,1.14-1.67.42-.67,1.3-.87,1.98-.45.67.42.87,1.31.45,1.98-.39.62-.81,1.24-1.26,1.84-.28.38-.71.58-1.15.58-.29,0-.6-.09-.85-.28-.63-.47-.77-1.37-.3-2.01h0ZM136.86,160.27c-.61.38-1.23.76-1.85,1.12-.23.14-.48.2-.73.2-.49,0-.97-.25-1.24-.71-.4-.68-.16-1.56.52-1.96.6-.35,1.2-.71,1.79-1.08.67-.42,1.55-.22,1.98.45.42.67.22,1.56-.46,1.98h0ZM136.5,119.11c-.3-.57-.64-1.13-1.01-1.66-.46-.65-.3-1.54.35-2,.65-.45,1.55-.29,2,.36.44.63.84,1.29,1.2,1.97.36.7.09,1.57-.61,1.94-.22.11-.44.16-.67.16-.52,0-1.01-.28-1.27-.77h0ZM140.9,130.74c-.1.71-.72,1.23-1.42,1.23-.07,0-.14,0-.21-.01-.78-.11-1.33-.84-1.21-1.63.1-.65.16-1.32.2-1.99.05-.79.72-1.4,1.51-1.35.79.05,1.39.72,1.35,1.52-.05.75-.13,1.51-.23,2.24h0ZM146.93,150.49c.55.57.53,1.48-.04,2.03-.52.5-1.06,1-1.61,1.48-.27.24-.62.36-.95.36-.39,0-.79-.16-1.07-.48-.53-.59-.47-1.5.12-2.03.52-.46,1.03-.93,1.52-1.41.57-.55,1.48-.53,2.03.04h0ZM140.59,102.14c.74.12,1.47.25,2.17.41.77.16,1.27.93,1.1,1.7-.15.67-.74,1.13-1.41,1.13-.1,0-.2-.01-.3-.03-.65-.14-1.33-.27-2.02-.38-.78-.13-1.32-.86-1.19-1.65.12-.78.86-1.31,1.64-1.19h0ZM141.37,97.11c-.67.26-1.34.51-2.01.76-.16.06-.33.09-.49.09-.58,0-1.14-.36-1.35-.94-.27-.75.11-1.57.85-1.84.66-.24,1.31-.49,1.96-.74.73-.29,1.57.08,1.86.82.29.73-.08,1.57-.81,1.86h0ZM145.98,84.34c-.58.43-1.18.85-1.79,1.26-.24.16-.53.24-.8.24-.46,0-.91-.22-1.19-.63-.44-.66-.27-1.55.39-1.99.58-.39,1.14-.79,1.69-1.19.64-.47,1.53-.33,2,.3.47.64.34,1.53-.3,2h0ZM152.77,91.76c-.62.35-1.26.7-1.9,1.04-.21.11-.44.16-.67.16-.51,0-1.01-.28-1.27-.76-.37-.7-.1-1.57.6-1.94.62-.32,1.23-.66,1.84-1,.7-.38,1.57-.14,1.95.55.39.69.15,1.57-.54,1.95h0ZM155.1,75.35c-.43.59-.89,1.18-1.37,1.75-.28.34-.69.52-1.11.52-.32,0-.64-.11-.91-.33-.61-.51-.69-1.41-.19-2.02.44-.53.86-1.07,1.25-1.61.47-.64,1.36-.78,2-.32.65.47.78,1.36.32,2h0ZM82.65,32.99c-.13.04-.25.05-.38.05-.63,0-1.2-.42-1.38-1.05-.22-.76.23-1.55,1-1.77.68-.19,1.37-.38,2.06-.56.76-.2,1.55.25,1.76,1.01.2.77-.25,1.55-1.02,1.76-.68.18-1.35.37-2.04.56h0ZM88.5,70.09l-.52,2.06c-.17.65-.75,1.08-1.39,1.08-.11,0-.24-.01-.35-.05-.77-.2-1.23-.98-1.03-1.75l.52-2.06c.2-.77.98-1.23,1.75-1.03.77.2,1.23.98,1.03,1.74ZM91.6,58.06l-.53,2.06c-.17.65-.75,1.08-1.39,1.08-.12,0-.24-.02-.36-.05-.77-.2-1.23-.98-1.03-1.75l.53-2.06c.2-.76.98-1.23,1.75-1.03.77.2,1.22.98,1.03,1.75ZM94.68,46.01c-.16.64-.33,1.33-.52,2.07-.17.65-.75,1.08-1.39,1.08-.12,0-.24-.01-.35-.04-.77-.19-1.23-.98-1.04-1.74.19-.73.36-1.43.52-2.06.19-.77.97-1.24,1.73-1.04.77.19,1.23.97,1.05,1.74h0ZM96.69,29.57c-.69.15-1.38.29-2.07.44-.1.03-.21.04-.31.04-.66,0-1.25-.46-1.39-1.13-.17-.77.32-1.54,1.09-1.71.7-.15,1.39-.3,2.09-.45.78-.16,1.54.33,1.7,1.11.16.78-.34,1.54-1.11,1.7h0ZM102.93,41.2c-.69.12-1.39.24-2.08.37-.09.01-.17.02-.25.02-.68,0-1.28-.48-1.41-1.18-.14-.78.38-1.53,1.15-1.67.71-.13,1.41-.25,2.12-.37.78-.13,1.52.39,1.65,1.18.13.78-.39,1.52-1.18,1.65h0ZM108.82,27.37c-.7.11-1.39.22-2.09.33-.08.01-.15.02-.23.02-.69,0-1.3-.5-1.42-1.2-.12-.78.41-1.52,1.19-1.65.71-.11,1.41-.23,2.11-.34.79-.12,1.51.42,1.64,1.2.12.78-.42,1.51-1.2,1.63h0ZM115.14,39.57c-.38.04-.75.07-1.12.11-.33.03-.65.07-.99.1-.05,0-.1,0-.16,0-.72,0-1.34-.54-1.42-1.28-.09-.79.48-1.49,1.27-1.58.33-.04.67-.07,1-.11.38-.04.76-.08,1.13-.11.79-.08,1.49.5,1.57,1.28.08.79-.5,1.49-1.28,1.57h0ZM121.05,25.83c-.69.07-1.39.14-2.1.22-.05,0-.1,0-.16,0-.72,0-1.34-.54-1.42-1.28-.08-.79.48-1.49,1.27-1.58.72-.08,1.43-.15,2.13-.22.79-.08,1.49.5,1.57,1.29.08.79-.5,1.49-1.28,1.57h0ZM127.41,38.9h-.02c-.69,0-1.39,0-2.1.03h-.03c-.78,0-1.42-.62-1.43-1.4-.02-.79.61-1.45,1.41-1.47.73-.02,1.46-.03,2.16-.03.79,0,1.44.64,1.44,1.43s-.63,1.43-1.42,1.43h0ZM133.33,25.03c-.7.02-1.39.04-2.11.07-.02,0-.04,0-.06,0-.77,0-1.4-.61-1.43-1.38-.03-.79.59-1.46,1.38-1.49.72-.03,1.44-.05,2.15-.07.8-.03,1.45.6,1.47,1.39s-.61,1.45-1.39,1.47h0ZM141.17,38.82c-.14.68-.74,1.15-1.41,1.15-.09,0-.19-.01-.28-.03-.65-.13-1.34-.25-2.03-.35-.78-.12-1.32-.85-1.2-1.63.12-.79.85-1.32,1.63-1.2.74.11,1.47.24,2.17.38.77.15,1.28.91,1.13,1.68h0ZM145.69,25.34s-.08,0-.13,0c-.67-.06-1.37-.11-2.08-.16-.79-.05-1.39-.73-1.34-1.52.05-.79.73-1.38,1.52-1.34.73.05,1.46.1,2.15.16.79.07,1.37.76,1.3,1.55-.06.75-.69,1.31-1.42,1.31h0ZM152.35,44.01c-.28.39-.72.6-1.17.6-.29,0-.58-.09-.83-.27-.53-.38-1.1-.74-1.68-1.08-.68-.4-.92-1.28-.52-1.96.39-.68,1.28-.92,1.96-.52.66.39,1.3.8,1.9,1.22.65.46.8,1.35.34,2h0ZM155.47,26.94c-.77-.19-1.23-.98-1.04-1.74.2-.77.98-1.23,1.75-1.04.71.18,1.42.38,2.11.58.76.23,1.19,1.03.96,1.79-.19.62-.76,1.02-1.37,1.02-.14,0-.28-.02-.42-.06-.65-.19-1.32-.38-1.99-.55h0ZM157.07,49.69c.72-.31,1.57.03,1.88.75.3.7.56,1.42.78,2.16.23.76-.22,1.56-.97,1.78-.14.04-.27.06-.41.06-.62,0-1.19-.41-1.37-1.03-.19-.63-.41-1.25-.67-1.84-.31-.73.03-1.57.76-1.88h0ZM158.01,66.67c-.77-.2-1.23-.98-1.03-1.75.16-.65.3-1.3.42-1.96.13-.78.87-1.31,1.66-1.17.78.13,1.31.87,1.18,1.65-.13.73-.28,1.48-.48,2.2-.16.65-.75,1.07-1.38,1.07-.12,0-.24-.01-.36-.04h0ZM163.21,84.59c-.55.46-1.12.92-1.7,1.38-.26.2-.57.3-.88.3-.43,0-.85-.19-1.13-.55-.48-.62-.38-1.52.24-2.01.55-.43,1.09-.87,1.61-1.31.61-.51,1.52-.43,2.02.17.51.61.44,1.51-.17,2.02h0ZM165.98,29.61c.44-.66,1.33-.85,1.99-.41.63.41,1.24.85,1.82,1.29.63.48.75,1.38.27,2.01-.28.37-.71.56-1.14.56-.3,0-.61-.1-.87-.29-.53-.4-1.08-.79-1.65-1.17-.66-.43-.85-1.32-.42-1.99h0ZM171.91,75.31c-.43.58-.87,1.17-1.33,1.74-.29.35-.71.54-1.13.54-.31,0-.63-.1-.89-.31-.62-.49-.72-1.39-.23-2.01.43-.54.85-1.09,1.24-1.64.47-.64,1.36-.78,2.01-.32.64.47.78,1.36.32,2h0ZM174.9,38.08c.7-.37,1.57-.1,1.94.6.35.66.67,1.35.96,2.05.3.73-.05,1.57-.78,1.87-.18.07-.36.11-.54.11-.56,0-1.1-.33-1.33-.89-.25-.61-.53-1.22-.84-1.8-.37-.7-.1-1.57.6-1.94h0ZM177.82,63.97c-.23.69-.49,1.39-.76,2.07-.22.56-.76.9-1.33.9-.18,0-.36-.03-.53-.1-.74-.3-1.1-1.13-.8-1.86.26-.63.49-1.28.71-1.92.25-.75,1.06-1.15,1.81-.9.75.25,1.16,1.06.9,1.82ZM178.34,54.87h-.07c-.79-.04-1.4-.71-1.37-1.49.02-.54.04-1.08.04-1.62,0-.14,0-.29,0-.43-.01-.79.62-1.44,1.42-1.45h.02c.79,0,1.42.63,1.43,1.42,0,.15,0,.31,0,.46,0,.58-.02,1.17-.04,1.75-.04.77-.67,1.37-1.43,1.37h0Z"/>
    </g>
    <g>
      <g>
        <path class="cls-2" d="M133.25,22.17c-.71.02-1.42.04-2.15.07-.79.03-1.41.7-1.38,1.49.04.77.67,1.38,1.43,1.38.02,0,.04,0,.06,0,.71-.03,1.41-.05,2.11-.07.78-.02,1.41-.68,1.39-1.47s-.67-1.42-1.47-1.39h0ZM145.81,22.48c-.7-.06-1.42-.11-2.15-.16-.79-.04-1.48.55-1.52,1.34-.05.79.55,1.47,1.34,1.52.71.05,1.41.1,2.08.16.05,0,.09,0,.13,0,.73,0,1.36-.56,1.42-1.31.07-.79-.52-1.48-1.3-1.55h0ZM122.33,24.26c-.07-.79-.77-1.37-1.57-1.29-.7.07-1.41.14-2.13.22-.79.09-1.35.79-1.27,1.58.08.73.7,1.28,1.42,1.28.06,0,.11,0,.16,0,.71-.08,1.41-.15,2.1-.22.78-.08,1.37-.78,1.28-1.57h0ZM158.29,24.74c-.69-.21-1.39-.41-2.11-.58-.77-.19-1.55.27-1.75,1.04-.19.77.27,1.55,1.04,1.74.67.17,1.34.36,1.99.55.14.04.28.06.42.06.61,0,1.19-.4,1.37-1.02.23-.76-.2-1.56-.96-1.79h0ZM110.02,25.73c-.13-.79-.85-1.32-1.64-1.2-.71.11-1.41.22-2.11.34-.78.13-1.31.86-1.19,1.65.11.7.73,1.2,1.42,1.2.08,0,.15,0,.23-.02.7-.11,1.39-.22,2.09-.33.78-.12,1.32-.85,1.2-1.63h0ZM169.78,30.49c-.57-.44-1.19-.87-1.82-1.29-.66-.43-1.55-.25-1.99.41-.43.66-.25,1.55.42,1.99.57.38,1.13.77,1.65,1.17.26.2.57.29.87.29.43,0,.86-.19,1.14-.56.48-.63.36-1.53-.27-2.01h0ZM177.8,40.73c-.29-.7-.61-1.39-.96-2.05-.37-.7-1.24-.97-1.94-.6-.7.37-.97,1.24-.6,1.94.31.58.59,1.19.84,1.8.23.56.77.89,1.33.89.18,0,.37-.04.54-.11.73-.3,1.08-1.14.78-1.87h0ZM65.62,51.58l-.32,1.15c.21-.13.38-.23.53-.33l-.21-.82h0ZM179.81,51.29c-.01-.79-.65-1.42-1.43-1.42h-.02c-.79.01-1.43.66-1.42,1.45,0,.14,0,.28,0,.43,0,.54-.02,1.08-.04,1.62-.03.79.58,1.46,1.37,1.49h.07c.76,0,1.39-.6,1.43-1.37.02-.58.04-1.17.04-1.75,0-.15,0-.31,0-.46h0ZM176.92,62.15c-.75-.25-1.56.15-1.81.9-.22.64-.45,1.29-.71,1.92-.29.73.06,1.57.8,1.86.18.07.35.1.53.1.56,0,1.1-.34,1.33-.9.27-.68.53-1.38.76-2.07.26-.75-.15-1.57-.9-1.82ZM171.59,73.3c-.65-.46-1.54-.32-2.01.32-.39.55-.81,1.1-1.24,1.64-.49.62-.39,1.52.23,2.01.26.21.58.31.89.31.42,0,.84-.19,1.13-.54.45-.57.9-1.16,1.33-1.74.46-.64.32-1.54-.32-2h0ZM163.38,82.57c-.51-.61-1.42-.68-2.02-.17-.52.44-1.06.88-1.61,1.31-.62.49-.73,1.39-.24,2.01.29.36.71.55,1.13.55.31,0,.62-.1.88-.3.58-.45,1.14-.91,1.7-1.38.61-.51.68-1.41.17-2.02h0ZM153.32,89.81c-.39-.69-1.26-.93-1.95-.55-.6.34-1.22.68-1.84,1-.7.37-.96,1.24-.6,1.94.26.48.75.76,1.27.76.23,0,.46-.05.67-.16.64-.34,1.28-.68,1.9-1.04.69-.39.94-1.26.54-1.95h0ZM142.18,95.26c-.29-.74-1.12-1.1-1.86-.82-.65.25-1.3.5-1.96.74-.74.27-1.13,1.1-.85,1.84.21.58.76.94,1.35.94.16,0,.33-.03.49-.09.68-.25,1.35-.5,2.01-.76.74-.29,1.1-1.12.81-1.86h0ZM142.75,102.55c-.7-.15-1.42-.29-2.17-.41-.78-.13-1.52.41-1.64,1.19-.13.78.41,1.52,1.19,1.65.69.11,1.37.24,2.02.38.1.02.2.03.3.03.66,0,1.25-.46,1.41-1.13.16-.77-.33-1.54-1.1-1.7h0ZM154.5,108.16c-.56-.52-1.16-1.01-1.79-1.46-.64-.46-1.53-.32-2,.32-.47.64-.32,1.54.32,2,.53.39,1.04.8,1.51,1.24.28.26.63.39.98.39.38,0,.77-.15,1.05-.46.54-.58.51-1.48-.07-2.03h0ZM160.26,119.96c-.07-.77-.19-1.53-.35-2.25-.17-.77-.93-1.27-1.7-1.1-.77.16-1.27.93-1.1,1.7.13.62.24,1.28.3,1.94.08.74.7,1.29,1.43,1.29.05,0,.1,0,.14,0,.79-.08,1.37-.79,1.28-1.57h0ZM158.43,128.93c-.77-.17-1.53.33-1.7,1.1-.14.67-.3,1.33-.48,1.99-.2.77.25,1.56,1.01,1.76.13.03.25.05.38.05.63,0,1.21-.42,1.38-1.06.19-.71.37-1.43.52-2.14.16-.78-.33-1.54-1.11-1.7h0ZM154.36,140.59c-.68-.41-1.56-.18-1.96.51-.34.58-.71,1.17-1.09,1.74-.43.66-.25,1.55.4,1.99.24.16.52.24.8.24.46,0,.92-.23,1.2-.64.4-.61.8-1.24,1.17-1.86.4-.68.18-1.56-.5-1.96h0ZM53.62,148.24c-.79-.1-1.5.46-1.6,1.25-.09.71-.17,1.41-.25,2.11-.1.79.47,1.5,1.25,1.6.05,0,.11.01.17.01.72,0,1.34-.54,1.43-1.27.08-.7.16-1.4.25-2.1.1-.79-.46-1.5-1.25-1.6ZM146.93,150.49c-.54-.57-1.46-.59-2.03-.04-.49.47-1,.95-1.52,1.41-.59.53-.65,1.43-.12,2.03.28.32.67.48,1.07.48.34,0,.68-.12.95-.36.54-.48,1.08-.98,1.61-1.48.57-.55.59-1.46.04-2.03h0ZM137.31,158.29c-.42-.67-1.3-.87-1.98-.45-.58.37-1.19.73-1.79,1.08-.68.4-.91,1.28-.52,1.96.27.46.75.71,1.24.71.25,0,.5-.06.73-.2.62-.36,1.24-.74,1.85-1.12.67-.42.87-1.3.46-1.98h0ZM52.22,160.56c-.79-.08-1.49.5-1.57,1.29-.07.71-.14,1.42-.2,2.12-.08.79.5,1.49,1.29,1.56.04,0,.09,0,.14,0,.73,0,1.35-.56,1.42-1.3.06-.7.13-1.41.2-2.11.08-.79-.49-1.49-1.28-1.57h0ZM126.42,164.21c-.32-.73-1.16-1.06-1.89-.75-.63.27-1.29.54-1.93.8-.73.3-1.09,1.13-.79,1.87.22.56.76.9,1.33.9.18,0,.36-.04.53-.1.66-.27,1.33-.54,2-.83.72-.31,1.06-1.16.75-1.89h0ZM114.78,168.51c-.22-.76-1.01-1.2-1.77-.99-.67.19-1.34.38-2.02.56-.77.2-1.23.99-1.02,1.75.17.64.75,1.06,1.38,1.06.13,0,.25-.01.37-.05.7-.19,1.39-.38,2.07-.57.76-.22,1.2-1.01.99-1.77h0ZM102.72,171.42c-.13-.78-.88-1.3-1.66-1.17-.69.12-1.38.24-2.08.35-.78.13-1.31.86-1.19,1.64.11.71.73,1.21,1.42,1.21.08,0,.15,0,.23-.02.71-.11,1.42-.23,2.12-.35.78-.14,1.3-.88,1.16-1.66h0ZM88.89,171.84c-.7.06-1.4.12-2.1.17-.79.06-1.38.75-1.32,1.53.05.75.68,1.33,1.42,1.33.04,0,.08,0,.11,0,.72-.05,1.43-.11,2.14-.18.79-.07,1.37-.76,1.3-1.56-.07-.79-.77-1.37-1.55-1.3h0ZM76.62,172.47h-.44c-.57,0-1.12,0-1.65-.02h-.04c-.78,0-1.41.62-1.43,1.41-.01.79.62,1.45,1.41,1.46.54.01,1.12.02,1.71.02h.46c.79,0,1.43-.65,1.42-1.44,0-.79-.67-1.43-1.44-1.43h0ZM51.13,172.92c-.79-.05-1.48.54-1.53,1.33-.05.71-.1,1.42-.15,2.13-.05.79.55,1.47,1.34,1.52.03,0,.06,0,.09,0,.75,0,1.38-.58,1.43-1.34.05-.7.09-1.41.15-2.11.05-.79-.54-1.48-1.33-1.53ZM69.24,179.1c-.67-.42-1.55-.21-1.97.47-.26.42-.61.8-1.08,1.15-.63.48-.76,1.38-.28,2.01.28.37.71.57,1.14.57.3,0,.61-.09.86-.29.76-.57,1.34-1.2,1.79-1.94.42-.67.21-1.56-.47-1.97h0ZM57.29,183.1h-.16c-.7,0-1.35-.04-1.92-.12-.79-.11-1.51.44-1.62,1.22-.11.79.44,1.51,1.22,1.62.71.1,1.49.15,2.32.15h.16c.8,0,1.43-.65,1.43-1.44,0-.79-.65-1.42-1.43-1.42h0Z"/>
        <path class="cls-2" d="M96.69,29.57c-.69.15-1.38.29-2.07.44-.1.03-.21.04-.31.04-.66,0-1.25-.46-1.39-1.13-.17-.77.32-1.54,1.09-1.71.7-.15,1.39-.3,2.09-.45.78-.16,1.54.33,1.7,1.11.16.78-.34,1.54-1.11,1.7h0Z"/>
        <path class="cls-2" d="M84.69,32.44c-.68.18-1.35.37-2.04.56-.13.04-.25.05-.38.05-.63,0-1.2-.42-1.38-1.05-.22-.76.23-1.55,1-1.77.68-.19,1.37-.38,2.06-.56.76-.2,1.55.25,1.76,1.01.2.77-.25,1.55-1.02,1.76h0Z"/>
        <path class="cls-2" d="M72.93,36c-.68.24-1.33.48-1.98.72-.16.06-.33.09-.5.09-.58,0-1.13-.35-1.34-.93-.28-.74.1-1.57.84-1.85.66-.24,1.33-.49,2.03-.73.75-.27,1.57.13,1.82.87.27.75-.13,1.57-.87,1.83Z"/>
        <path class="cls-2" d="M55.74,57.89c-.86.27-1.66.44-2.39.5-.04,0-.08,0-.11,0-.74,0-1.37-.57-1.43-1.32-.06-.79.52-1.48,1.32-1.55.51-.04,1.1-.17,1.76-.38.76-.24,1.56.18,1.8.94.24.76-.18,1.56-.94,1.8h0Z"/>
        <path class="cls-2" d="M61.71,40.77c-.63.33-1.24.66-1.82.99-.22.13-.47.19-.71.19-.5,0-.98-.26-1.24-.72-.39-.69-.15-1.56.54-1.95.61-.35,1.25-.7,1.91-1.04.7-.37,1.57-.1,1.94.61.37.7.1,1.57-.61,1.94h0Z"/>
        <path class="cls-2" d="M52.46,47.61c-.29.5-.53,1.05-.72,1.65-.19.62-.76,1.01-1.37,1.01-.14,0-.28-.02-.42-.06-.76-.23-1.18-1.04-.95-1.79.25-.8.58-1.56.98-2.24.4-.68,1.28-.92,1.96-.52.69.4.92,1.28.52,1.96h0Z"/>
      </g>
      <g>
        <path class="cls-2" d="M80.12,159.97c-.68,0-1.39,0-2.11,0h0c-.79,0-1.43.64-1.43,1.43,0,.79.63,1.44,1.42,1.44.37,0,.73,0,1.09,0s.71,0,1.06,0c.8,0,1.43-.65,1.43-1.44,0-.79-.64-1.42-1.44-1.43h0ZM93.95,160.57c-.08-.79-.79-1.36-1.57-1.27-.7.07-1.39.14-2.1.21-.79.07-1.37.77-1.3,1.56.07.75.7,1.3,1.42,1.3.04,0,.09,0,.13,0,.72-.06,1.43-.14,2.14-.21.79-.08,1.35-.79,1.27-1.58ZM106.18,158.45c-.17-.77-.93-1.26-1.71-1.09-.67.15-1.36.29-2.06.43-.77.15-1.28.91-1.13,1.68.14.68.74,1.15,1.41,1.15.09,0,.18,0,.28-.03.71-.14,1.42-.29,2.12-.44.77-.17,1.26-.94,1.09-1.71h0ZM117.98,154.61c-.3-.73-1.14-1.09-1.87-.79-.63.25-1.28.51-1.94.75-.75.27-1.13,1.09-.85,1.84.21.58.76.94,1.34.94.16,0,.33-.03.49-.09.68-.25,1.37-.52,2.03-.79.73-.3,1.09-1.14.79-1.87h0ZM128.57,148.21c-.48-.63-1.38-.75-2.01-.27-.27.2-.53.41-.8.6-.28.21-.57.41-.86.61-.65.45-.81,1.34-.37,1.99.28.41.73.62,1.18.62.28,0,.57-.08.82-.25.31-.22.62-.43.92-.66.29-.22.57-.43.85-.64.63-.48.74-1.38.26-2.01ZM136.67,138.88c-.67-.42-1.55-.22-1.98.45-.35.56-.74,1.12-1.14,1.67-.47.64-.34,1.53.3,2.01.26.19.56.28.85.28.44,0,.87-.2,1.15-.58.45-.6.87-1.22,1.26-1.84.42-.67.22-1.56-.45-1.98h0ZM139.79,126.98c-.8-.05-1.47.56-1.51,1.35-.04.67-.11,1.34-.2,1.99-.11.79.43,1.51,1.21,1.63.07.01.14.01.21.01.7,0,1.32-.51,1.42-1.23.11-.73.18-1.49.23-2.24.04-.79-.56-1.47-1.35-1.52h0ZM76.04,116.71c-.19-.04-.38-.03-.56,0l1.28.36c-.19-.18-.44-.32-.72-.37h0ZM139.04,117.78c-.36-.68-.76-1.34-1.2-1.97-.46-.65-1.35-.81-2-.36-.65.46-.81,1.35-.35,2,.37.53.71,1.09,1.01,1.66.25.49.75.77,1.27.77.22,0,.45-.05.67-.16.7-.37.97-1.23.61-1.94h0ZM129.44,108.83c-.66-.3-1.37-.59-2.09-.85-.75-.26-1.57.13-1.83.87-.27.75.13,1.57.87,1.83.65.23,1.27.48,1.85.75.19.09.4.13.6.13.54,0,1.06-.31,1.3-.83.33-.72.01-1.57-.71-1.9h0ZM116.86,106.06c-.7-.04-1.44-.08-2.17-.09-.8-.02-1.46.6-1.48,1.39s.61,1.45,1.4,1.47c.71.02,1.4.05,2.08.09.03,0,.06,0,.09,0,.75,0,1.38-.59,1.43-1.35.05-.79-.56-1.47-1.34-1.52h0ZM124.03,93.04c-.2-.76-.99-1.22-1.75-1.02-.67.18-1.35.35-2.04.51-.77.18-1.24.96-1.06,1.73.16.66.75,1.1,1.39,1.1.11,0,.22-.01.33-.04.7-.16,1.41-.34,2.1-.53.77-.2,1.22-.99,1.02-1.75h0ZM135.67,88.75c-.32-.72-1.17-1.05-1.89-.73-.63.28-1.28.55-1.92.82-.73.3-1.09,1.13-.79,1.87.23.56.77.89,1.33.89.18,0,.36-.04.54-.11.67-.27,1.34-.56,2-.85.72-.32,1.05-1.17.73-1.89ZM146.28,82.34c-.47-.64-1.37-.77-2-.3-.55.4-1.11.8-1.69,1.19-.65.44-.83,1.33-.39,1.99.28.41.73.63,1.19.63.27,0,.56-.08.8-.24.61-.41,1.21-.84,1.79-1.26.64-.47.77-1.37.3-2h0ZM154.77,73.34c-.63-.47-1.53-.32-2,.32-.4.54-.82,1.08-1.25,1.61-.5.61-.42,1.51.19,2.02.27.22.59.33.91.33.42,0,.82-.18,1.11-.52.48-.57.93-1.16,1.37-1.75.46-.64.32-1.54-.32-2h0ZM159.05,61.79c-.78-.14-1.52.39-1.66,1.17-.11.66-.25,1.32-.42,1.96-.2.77.26,1.55,1.03,1.75.12.03.24.04.36.04.64,0,1.22-.43,1.38-1.07.19-.72.35-1.47.48-2.2.13-.78-.39-1.52-1.18-1.65h0ZM159.73,52.61c-.22-.74-.48-1.47-.78-2.16-.31-.73-1.16-1.06-1.88-.75-.73.31-1.07,1.15-.76,1.88.26.6.48,1.22.67,1.84.18.62.75,1.03,1.37,1.03.14,0,.27-.02.41-.06.76-.23,1.2-1.02.97-1.78h0ZM152.01,42.01c-.6-.43-1.24-.84-1.9-1.22-.68-.4-1.57-.16-1.96.52-.4.68-.17,1.56.52,1.96.58.34,1.15.7,1.68,1.08.25.18.54.27.83.27.45,0,.89-.21,1.17-.6.46-.65.3-1.54-.34-2h0ZM140.04,37.13c-.7-.14-1.43-.27-2.17-.38-.78-.12-1.51.42-1.63,1.2-.11.78.42,1.51,1.2,1.63.7.1,1.38.23,2.03.35.09.02.19.03.28.03.67,0,1.27-.47,1.41-1.15.15-.77-.35-1.53-1.13-1.68h0ZM116.42,38c-.07-.79-.78-1.37-1.57-1.28-.37.04-.75.08-1.13.11-.33.04-.67.07-1,.11-.78.09-1.35.79-1.27,1.58.08.73.7,1.28,1.42,1.28.06,0,.11,0,.16,0,.33-.04.66-.07.99-.1.38-.04.75-.08,1.12-.11.78-.08,1.36-.78,1.28-1.57h0ZM127.39,36.04c-.7,0-1.43,0-2.16.03-.8.02-1.42.67-1.41,1.47.02.78.65,1.4,1.43,1.4h.03c.71-.02,1.41-.03,2.1-.03h.02c.78,0,1.42-.64,1.42-1.43s-.65-1.43-1.44-1.43h0Z"/>
        <path class="cls-2" d="M102.93,41.2c-.69.12-1.39.24-2.08.37-.09.01-.17.02-.25.02-.68,0-1.28-.48-1.41-1.18-.14-.78.38-1.53,1.15-1.67.71-.13,1.41-.25,2.12-.37.78-.13,1.52.39,1.65,1.18.13.78-.39,1.52-1.18,1.65h0Z"/>
        <path class="cls-2" d="M105.05,108.41c-.16.06-.32.09-.49.09-.59,0-1.13-.37-1.35-.95-.23-.65-.35-1.51-.37-2.57-.01-.79.62-1.44,1.42-1.45h.02c.79,0,1.42.63,1.43,1.42,0,1,.14,1.48.2,1.63.27.75-.12,1.57-.87,1.84h0Z"/>
        <path class="cls-2" d="M110.7,97.16c-.68.12-1.28.28-1.8.47-.16.06-.33.09-.51.09-.58,0-1.13-.35-1.34-.93-.28-.74.1-1.57.85-1.85.68-.25,1.46-.46,2.31-.61.78-.14,1.52.38,1.66,1.17.14.78-.38,1.52-1.17,1.66h0Z"/>
        <path class="cls-2" d="M88.5,70.09l-.52,2.06c-.17.65-.75,1.08-1.39,1.08-.11,0-.24-.01-.35-.05-.77-.2-1.23-.98-1.03-1.75l.52-2.06c.2-.77.98-1.23,1.75-1.03.77.2,1.23.98,1.03,1.74Z"/>
        <path class="cls-2" d="M91.6,58.06l-.53,2.06c-.17.65-.75,1.08-1.39,1.08-.12,0-.24-.02-.36-.05-.77-.2-1.23-.98-1.03-1.75l.53-2.06c.2-.76.98-1.23,1.75-1.03.77.2,1.22.98,1.03,1.75Z"/>
        <path class="cls-2" d="M94.68,46.01c-.16.64-.33,1.33-.52,2.07-.17.65-.75,1.08-1.39,1.08-.12,0-.24-.01-.35-.04-.77-.19-1.23-.98-1.04-1.74.19-.73.36-1.43.52-2.06.19-.77.97-1.24,1.73-1.04.77.19,1.23.97,1.05,1.74h0Z"/>
      </g>
    </g>
  </g>
  <g>
    <g>
      <path class="cls-4" d="M65.83,52.4c-.15.09-.33.2-.53.33l.32-1.15.21.82h0Z"/>
      <path class="cls-4" d="M76.76,117.07l-1.28-.36c.18-.04.37-.04.56,0,.28.05.53.18.72.37h0Z"/>
    </g>
    <path class="cls-1" d="M76.76,117.07l-1.28-.36c.18-.04.37-.04.56,0,.28.05.53.18.72.37h0Z"/>
    <g>
      <path class="cls-3" d="M65.62,51.58l-.32,1.15c.21-.13.38-.23.53-.33l-.21-.82h0Z"/>
      <path class="cls-3" d="M85.74,105.04l-1.82-1.86,2.94-2.88,20.89-20.45,2.14-2.09-8.74,2.24-9.89,2.54-3.96,1.02-2.37.61-2.46.63-7.79,2-4.81-18.73-.84-3.27-1.13-4.42-1.49-5.79-.56-2.18c-.15.09-.33.2-.53.33l-.86,3.06-1.42,5.07-7.2,25.73-6.95-1.95-28.06-7.85,24.26,24.79,1.15,1.18-1.75,1.71-24.22,23.71,20.82-5.34,9.51-2.44,3.81-.98,1.07-.28,1.18,4.6,1.13,4.41,6.73,26.21,9.49-33.89h0s.31-1.13.31-1.13l2.58.72,2.08.58,3.47.97,8.67,2.43,18.21,5.1-5.45-5.56-18.15-18.55h0ZM91.61,121.23l-8.66-2.43-3.47-.97-2.71-.76h0l-1.28-.36-.4-.11-2.74-.77-.77,2.74-6.94,24.81-6.41-24.95-.71-2.75-2.56.66-.2.05-3.62.93-9.54,2.45-11.76,3.02,13.67-13.37,4.71-4.62,2.03-1.99-1.99-2.03-2.48-2.54-15.51-15.84,17.94,5.02,6.84,1.92,1.79.5.95.27.77-2.74,6.94-24.81.95,3.72,5.45,21.23.71,2.75,2.76-.71,11.13-2.86,3.95-1.01,9.85-2.53-12.19,11.93-4.84,4.74-1.35,1.33-2.03,1.99,1.99,2.03.12.13,2.99,3.05,13.63,13.93,1.24,1.27-8.26-2.31h0Z"/>
      <path class="cls-1" d="M98.62,122.27l1.24,1.27-8.26-2.31-8.66-2.43-3.47-.97-2.71-.76h0c-.19-.18-.44-.32-.72-.37-.19-.04-.38-.03-.56,0l-.4-.11-2.74-.77-.77,2.74-6.94,24.81-6.41-24.95-.71-2.75-2.56.66-.2.05-3.62.93-9.54,2.45-11.76,3.02,13.67-13.37,4.71-4.62,2.03-1.99-1.99-2.03-2.48-2.54-15.51-15.84,17.94,5.02,6.84,1.92,1.79.5.95.27.77-2.74,6.94-24.81.95,3.72,5.45,21.23.71,2.75,2.76-.71,11.13-2.86,3.95-1.01,9.85-2.53-12.19,11.93-4.84,4.74-1.35,1.33-2.03,1.99,1.99,2.03.12.13,2.99,3.05,13.63,13.93Z"/>
    </g>
  </g>
</svg>