<svg width="333" height="171" viewBox="0 0 333 171" fill="none" xmlns="http://www.w3.org/2000/svg">
<path d="M278.295 13.9414L291.957 13.9414C324.574 13.9414 351.104 47.5578 314.751 87.9255C332.877 106.056 316.303 170.871 255.966 170.871H170.594L182.026 126.332C182.026 126.332 258.953 126.332 263.767 126.329C269.081 126.325 269.374 124.048 270.006 122.886C270.637 121.725 271.695 118.003 272.096 115.652C272.496 113.3 271.419 111.98 268.902 111.98H248.493C249.159 108.526 251.024 98.7822 252.154 92.9417C253.316 86.1275 261.567 74.9037 277.12 74.9541C280.81 74.9541 282.037 73.7236 282.43 71.9882C283.669 66.5119 285.302 59.9262 286.181 55.8083C287.394 50.1264 284.612 46.3676 270.912 46.1075L278.295 13.9414Z" fill="black"/>
<path d="M93.91 46.1001C80.9389 24.4091 59.6429 44.7634 41.541 39.6738C57.147 53.4563 76.5887 43.7673 93.91 46.1001Z" fill="#E0119D"/>
<path d="M270.91 46.1092C265.747 46.0441 236.194 45.2839 217.808 52.8413C271.68 60.0267 250.008 127.389 166.372 97.8636C180.199 112.73 199.667 114.135 229.23 114.468C254.408 114.751 243.129 136.914 211.794 151.764C190.328 160.262 168.746 166.289 150.125 159.516C179.915 157.882 185.83 115.471 160.391 128.507C104.837 156.977 103.843 126.222 66.6845 126.525C75.8249 121.64 88.6338 121.479 100.045 122.916C133.254 127.101 132.198 102.064 115.92 106.562C95.5142 112.204 89.0117 112.764 72.7692 105.761C52.8232 97.1606 33.4784 77.0347 0 80.6537C42.8537 38.6123 124.972 80.4909 128.178 54.2708C129.376 45.8306 116.941 25.8108 89.9939 28.7915C102.076 19.3406 139.948 19.1025 161.156 30.1949C194.451 47.609 222.355 20.6722 176.224 20.8303C159.938 20.8849 146.188 8.3411 144.952 0C163.758 16.1406 188.257 3.95556 230.641 3.95556C256.378 3.95556 227.572 12.8263 253.564 13.9432L278.294 13.9432L270.91 46.1092Z" fill="url(#paint0_linear_3013_26016)"/>
<defs>
<linearGradient id="paint0_linear_3013_26016" x1="2.78987e-10" y1="81.2173" x2="278.294" y2="81.2173" gradientUnits="userSpaceOnUse">
<stop stop-color="#E0119D"/>
<stop offset="0.5" stop-color="#E0119D"/>
<stop offset="0.975586" stop-color="#FAA21B"/>
</linearGradient>
</defs>
</svg>
